<svg xmlns="http://www.w3.org/2000/svg" width="18.018" height="16.229" viewBox="0 0 18.018 16.229"><defs><style>.a{fill:#070707;}.b,.e{fill:none;}.b,.c{stroke:#ff8c00;}.c{fill:#ff8c00;}.d{stroke:none;}</style></defs><g transform="translate(-202.346 -240.432)"><path class="a" d="M-310.63,241.79a1.054,1.054,0,0,1,1.03-.5c3.987.014,7.974.007,11.961.009.765,0,1,.228,1.005.965,0,1.574,0,3.149,0,4.723,0,.247.05.459-.348.466-.417.007-.4-.2-.393-.486.013-.449-.02-.9.011-1.349.024-.34-.111-.4-.416-.4q-5.858.014-11.715,0c-.32,0-.41.083-.408.406.014,2.351.017,4.7,0,7.054,0,.387.152.414.465.412,1.983-.012,3.966,0,5.95-.009.283,0,.5-.029.488.391-.007.4-.216.35-.465.35-2.086,0-4.171-.011-6.256.006a.994.994,0,0,1-.908-.5Zm6.937,2.7c1.473,0,2.946.011,4.419-.005.625-.007,1.462.273,1.815-.12.308-.343.05-1.169.1-1.776.038-.462-.1-.569-.563-.566-3.335.022-6.67.006-10,.017-.646,0-1.511-.281-1.874.122-.318.353-.06,1.206-.1,1.835-.027.4.1.507.5.5C-307.5,244.479-305.6,244.491-303.693,244.491Z" transform="translate(512.976 -0.859)"/><g transform="translate(-1359.701 -92.183)"><g transform="translate(1570.404 339.183)"><g class="b"><circle class="d" cx="4.83" cy="4.83" r="4.83"/><circle class="e" cx="4.83" cy="4.83" r="4.33"/></g><g transform="translate(1.275 4.356)"><g class="c"><circle class="d" cx="0.697" cy="0.697" r="0.697"/><circle class="e" cx="0.697" cy="0.697" r="0.197"/></g><g class="c" transform="translate(2.786)"><circle class="d" cx="0.697" cy="0.697" r="0.697"/><circle class="e" cx="0.697" cy="0.697" r="0.197"/></g><g class="c" transform="translate(5.573)"><circle class="d" cx="0.697" cy="0.697" r="0.697"/><circle class="e" cx="0.697" cy="0.697" r="0.197"/></g></g></g></g></g></svg>