<svg xmlns="http://www.w3.org/2000/svg" width="20.907" height="18.796" viewBox="0 0 20.907 18.796">
  <g id="Group_18962" data-name="Group 18962" transform="translate(-912.5 -788.204)">
    <path id="Icon_awesome-user-edit" data-name="Icon awesome-user-edit" d="M8.223,9.4a4.7,4.7,0,1,0-4.7-4.7A4.7,4.7,0,0,0,8.223,9.4Zm3.289,1.175H10.9a6.391,6.391,0,0,1-5.353,0H4.934A4.935,4.935,0,0,0,0,15.507v1.527A1.763,1.763,0,0,0,1.762,18.8H11.854a1.763,1.763,0,0,1-.1-.782l.25-2.236.044-.408.29-.29,2.838-2.838a4.884,4.884,0,0,0-3.668-1.67Z" transform="translate(912.5 788.204)" fill="#fff"/>
    <path id="Path_48962" data-name="Path 48962" d="M-4211.588-4511.921l2.17,2.372,4.658-4.969" transform="translate(5137.461 5315.766)" fill="none" stroke="#fff" stroke-linecap="round" stroke-width="1"/>
  </g>
</svg>
