<svg xmlns="http://www.w3.org/2000/svg" xmlns:xlink="http://www.w3.org/1999/xlink" width="32" height="32" viewBox="0 0 32 32">
  <defs>
    <clipPath id="clip-path">
      <rect id="Rectangle_27466" data-name="Rectangle 27466" width="32" height="32" transform="translate(-10958 -7363)" fill="#fff" opacity="0.46"/>
    </clipPath>
  </defs>
  <g id="Admin_Settings" data-name="Admin Settings" transform="translate(10958 7363)" clip-path="url(#clip-path)">
    <g id="Group_19268" data-name="Group 19268" transform="translate(11.999 0.087)">
      <path id="Path_49223" data-name="Path 49223" d="M9.278,17.927l8.65-8.65A4.744,4.744,0,0,0,23.814,3.22q-.027-.079-.056-.158a.6.6,0,0,0-.988-.214L20.977,4.642A1.1,1.1,0,0,1,19.42,3.085l1.793-1.793A.6.6,0,0,0,21,.3q-.078-.029-.158-.056a4.744,4.744,0,0,0-6.056,5.887l-8.65,8.65A4.744,4.744,0,0,0,.249,20.841q.049.145.107.287A.519.519,0,0,0,1.2,21.3l1.882-1.882a1.1,1.1,0,1,1,1.557,1.557L2.761,22.858a.517.517,0,0,0,.163.843q.147.061.3.111a4.744,4.744,0,0,0,6.056-5.887M4.114,22.92l1.236-1.236a2.1,2.1,0,0,0-2.972-2.972L1.142,19.948a.055.055,0,0,1-.094-.031,3.743,3.743,0,0,1,5.041-4.09l.3.117,9.553-9.553-.117-.3A3.743,3.743,0,0,1,19.9,1.044a.064.064,0,0,1,.036.108L18.712,2.377A2.1,2.1,0,1,0,21.685,5.35l1.224-1.224a.064.064,0,0,1,.108.036,3.743,3.743,0,0,1-5.043,4.074l-.3-.117L8.119,17.67l.117.3a3.743,3.743,0,0,1-4.09,5.041.055.055,0,0,1-.031-.094" transform="translate(-10966.031 -7359.117)" fill="#242424" stroke="#242424" stroke-width="0.25"/>
      <path id="Path_49224" data-name="Path 49224" d="M20.8,19.925l.747-.747a.224.224,0,0,0-.023-.337l-2.591-1.974a.556.556,0,0,0-.729.049l-1.291,1.291a.556.556,0,0,0-.049.729l1.974,2.591a.224.224,0,0,0,.337.023l.917-.917,5.477,5.478.708-.708Zm-1.824.131-1-1.319a.141.141,0,0,1,.013-.186l.565-.565a.141.141,0,0,1,.186-.013l1.319,1a.173.173,0,0,1,.017.26l-.835.835a.173.173,0,0,1-.26-.017" transform="translate(-10982.12 -7375.207)" fill="#242424" stroke="#242424" stroke-width="0.25"/>
      <path id="Path_49225" data-name="Path 49225" d="M331.539,328.424l-6.738-6.738-.708.708,6.738,6.738a1.2,1.2,0,0,1-1.7,1.7l-6.738-6.738-.708.708,6.738,6.738a2.2,2.2,0,0,0,3.114-3.114" transform="translate(-11274.965 -7668.05)" fill="#242424" stroke="#242424" stroke-width="0.25"/>
    </g>
  </g>
</svg>
