<svg id="Group_89" data-name="Group 89" xmlns="http://www.w3.org/2000/svg" xmlns:xlink="http://www.w3.org/1999/xlink" width="30" height="30" viewBox="0 0 30 30">
  <defs>
    <clipPath id="clip-path">
      <rect id="Rectangle_203" data-name="Rectangle 203" width="30" height="30" fill="none"/>
    </clipPath>
  </defs>
  <g id="Group_74" data-name="Group 74" clip-path="url(#clip-path)">
    <path id="Path_183" data-name="Path 183" d="M29.919,1.972V27.945a1.972,1.972,0,0,1-1.974,1.972H1.974A1.974,1.974,0,0,1,0,27.945V1.972A1.974,1.974,0,0,1,1.974,0H27.945a1.972,1.972,0,0,1,1.974,1.972" fill="#fff"/>
    <path id="Path_184" data-name="Path 184" d="M485.269,139.034h-6.433a.8.8,0,0,1-.8-.8v-3.514a.346.346,0,0,0-.158-.29,14.711,14.711,0,0,0-5.3-2.111.818.818,0,0,1-.667-.779l-.013-.535h13.365a.8.8,0,0,1,.8.8v6.433a.8.8,0,0,1-.8.8" transform="translate(-459.528 -127.571)" fill="#d83b01"/>
    <path id="Path_185" data-name="Path 185" d="M703.865,482.412v-6.433a.8.8,0,0,1,.8-.8h3.514a.346.346,0,0,0,.29-.157,14.71,14.71,0,0,0,2.111-5.3.818.818,0,0,1,.779-.667l.535-.013v6.768s0,.1,0,.164v6.433a.8.8,0,0,1-.8.8h-6.433a.8.8,0,0,1-.8-.8" transform="translate(-685.406 -456.746)" fill="#d83b01"/>
    <path id="Path_186" data-name="Path 186" d="M132.7,703.007h6.433a.8.8,0,0,1,.8.8v3.514a.346.346,0,0,0,.158.29,14.71,14.71,0,0,0,5.3,2.111.818.818,0,0,1,.667.779l.013.535H132.7a.8.8,0,0,1-.8-.8V703.8a.8.8,0,0,1,.8-.8" transform="translate(-128.446 -684.57)" fill="#d83b01"/>
    <path id="Path_187" data-name="Path 187" d="M139.891,131.844v6.433a.8.8,0,0,1-.8.8H135.58a.346.346,0,0,0-.29.158,14.71,14.71,0,0,0-2.111,5.3.818.818,0,0,1-.779.667l-.535.013v-6.768s0-.1,0-.164v-6.433a.8.8,0,0,1,.8-.8h6.433a.8.8,0,0,1,.8.8" transform="translate(-128.406 -127.61)" fill="#d83b01"/>
  </g>
</svg>
