<svg xmlns="http://www.w3.org/2000/svg" width="37.567" height="34.884" viewBox="0 0 37.567 34.884">
  <g id="Group_18748" data-name="Group 18748" transform="translate(-1461.324 -197.194)">
    <g id="Group_18692" data-name="Group 18692" transform="translate(1475.409 197.194)">
      <g id="Group_18707" data-name="Group 18707">
        <path id="Path_48836" data-name="Path 48836" d="M31.19,6.078,14.255,23.013a.659.659,0,0,0-.193.469V25.7a.664.664,0,0,0,.662.662h2.2a.679.679,0,0,0,.478-.193L34.351,9.239a.663.663,0,0,0,0-.939L32.129,6.078A.663.663,0,0,0,31.19,6.078Z" transform="translate(-14.063 -2.893)" fill="#fff"/>
      </g>
      <path id="Path_48837" data-name="Path 48837" d="M34.118,4.968,32.911,3.761l-.017-.017a1.482,1.482,0,0,0-.964-.369,1.453,1.453,0,0,0-.972.377l-.947.956a.339.339,0,0,0,0,.469l.872.872L32.7,7.869a.334.334,0,0,0,.478,0l.947-.947a1.43,1.43,0,0,0,.369-.972A1.517,1.517,0,0,0,34.118,4.968Z" transform="translate(-11.013 -3.375)" fill="#fff"/>
    </g>
    <path id="Path_48838" data-name="Path 48838" d="M20.526,27.012a1.346,1.346,0,0,1-.947.394H16.108a1.345,1.345,0,0,1-1.341-1.341V22.586a1.346,1.346,0,0,1,.394-.947l.067-.067L27.6,9.2a.335.335,0,0,0-.235-.57H7.171A4.923,4.923,0,0,0,2.25,13.548V32.328a4.923,4.923,0,0,0,4.921,4.921H28.633a4.923,4.923,0,0,0,4.921-4.921V14.806a.333.333,0,0,0-.57-.235L20.593,26.945Z" transform="translate(1459.074 194.829)" fill="#fff"/>
  </g>
</svg>
