<svg xmlns="http://www.w3.org/2000/svg" width="18.653" height="16.441" viewBox="0 0 18.653 16.441"><defs><style>.a{fill:#070707;}.b,.c{fill:none;}.c{stroke:#00ad56;stroke-linecap:round;stroke-width:0.75px;}.d,.e{stroke:none;}.e{fill:#00ad56;}</style></defs><g transform="translate(-291.974 -241.215)"><g transform="translate(89.629 0.784)"><path class="a" d="M-310.63,241.79a1.054,1.054,0,0,1,1.03-.5c3.987.014,7.974.007,11.961.009.765,0,1,.228,1.005.965,0,1.574,0,3.149,0,4.723,0,.247.05.459-.348.466-.417.007-.4-.2-.393-.486.013-.449-.02-.9.011-1.349.024-.34-.111-.4-.416-.4q-5.858.014-11.715,0c-.32,0-.41.083-.408.406.014,2.351.017,4.7,0,7.054,0,.387.152.414.465.412,1.983-.012,3.966,0,5.95-.009.283,0,.5-.029.488.391-.007.4-.216.35-.465.35-2.086,0-4.171-.011-6.256.006a.994.994,0,0,1-.908-.5Zm6.937,2.7c1.473,0,2.946.011,4.419-.005.625-.007,1.462.273,1.815-.12.308-.343.05-1.169.1-1.776.038-.462-.1-.569-.563-.566-3.335.022-6.67.006-10,.017-.646,0-1.511-.281-1.874.122-.318.353-.06,1.206-.1,1.835-.027.4.1.507.5.5C-307.5,244.479-305.6,244.491-303.693,244.491Z" transform="translate(512.976 -0.859)"/></g><g transform="translate(300.637 248)"><g class="b" transform="translate(0.334)"><path class="d" d="M4.828,0A4.828,4.828,0,1,1,0,4.828,4.828,4.828,0,0,1,4.828,0Z"/><path class="e" d="M 4.828035354614258 0.749995231628418 C 2.579395294189453 0.749995231628418 0.749995231628418 2.579395294189453 0.749995231628418 4.828035354614258 C 0.749995231628418 7.076675415039062 2.579395294189453 8.906075477600098 4.828035354614258 8.906075477600098 C 7.076675415039062 8.906075477600098 8.906075477600098 7.076675415039062 8.906075477600098 4.828035354614258 C 8.906075477600098 2.579395294189453 7.076675415039062 0.749995231628418 4.828035354614258 0.749995231628418 M 4.828035354614258 -4.76837158203125e-06 C 7.494485378265381 -4.76837158203125e-06 9.656075477600098 2.161585330963135 9.656075477600098 4.828035354614258 C 9.656075477600098 7.494485378265381 7.494485378265381 9.656075477600098 4.828035354614258 9.656075477600098 C 2.161585330963135 9.656075477600098 -4.76837158203125e-06 7.494485378265381 -4.76837158203125e-06 4.828035354614258 C -4.76837158203125e-06 2.161585330963135 2.161585330963135 -4.76837158203125e-06 4.828035354614258 -4.76837158203125e-06 Z"/></g><path class="c" d="M854.893,256.9l1.618,1.555s2.4-4.379,3.094-4.712" transform="translate(-852.23 -251.128)"/></g></g></svg>