<svg xmlns="http://www.w3.org/2000/svg" width="45" height="43" viewBox="0 0 45 43">
  <g id="Group_18563" data-name="Group 18563" transform="translate(-1480 -343)">
    <path id="Path_48730" data-name="Path 48730" d="M-310.63,242.57a2.7,2.7,0,0,1,2.639-1.279c10.215.036,20.43.018,30.645.023,1.96,0,2.571.584,2.576,2.473.01,4.034,0,8.068.006,12.1,0,.632.128,1.177-.893,1.195-1.069.018-1.027-.513-1.006-1.246.032-1.151-.051-2.309.028-3.456.061-.871-.284-1.02-1.065-1.019q-15.008.035-30.016,0c-.819,0-1.05.213-1.045,1.04.035,6.024.044,12.049-.006,18.073-.008.99.39,1.06,1.19,1.055,5.081-.03,10.162-.008,15.244-.024.726,0,1.269-.074,1.249,1-.019,1.015-.554.9-1.191.9-5.343-.007-10.687-.027-16.03.016a2.547,2.547,0,0,1-2.325-1.277Zm17.772,6.921c3.774,0,7.549.029,11.322-.014,1.6-.018,3.747.7,4.649-.307.789-.88.128-2.994.257-4.55.1-1.184-.268-1.458-1.443-1.451-8.544.057-17.088.015-25.632.044-1.654.006-3.871-.719-4.8.313-.815.906-.153,3.09-.259,4.7-.068,1.032.255,1.3,1.282,1.287C-302.607,249.459-297.733,249.491-292.858,249.491Z" transform="translate(1790.63 101.709)" fill="#fff"/>
    <g id="Group_18562" data-name="Group 18562">
      <g id="Group_18421" data-name="Group 18421" transform="translate(1500.26 361.26)">
        <g id="Ellipse_2794" data-name="Ellipse 2794" transform="translate(-0.26 -0.26)" fill="none" stroke="#00ad56" stroke-width="2.5">
          <circle cx="12.5" cy="12.5" r="12.5" stroke="none"/>
          <circle cx="12.5" cy="12.5" r="11.25" fill="none"/>
        </g>
      </g>
      <path id="Path_48733" data-name="Path 48733" d="M854.893,261.873l4.077,4s6.048-11.275,7.8-12.134" transform="translate(651.607 113.757)" fill="none" stroke="#00ad56" stroke-linecap="round" stroke-width="2.5"/>
    </g>
  </g>
</svg>
