<svg xmlns="http://www.w3.org/2000/svg" xmlns:xlink="http://www.w3.org/1999/xlink" width="40" height="32" viewBox="0 0 40 32">
  <defs>
    <clipPath id="clip-path">
      <rect id="Rectangle_27538" data-name="Rectangle 27538" width="40" height="32" transform="translate(391 1159)" fill="#fff" opacity="0.46"/>
    </clipPath>
    <clipPath id="clip-path-2">
      <rect id="Rectangle_27537" data-name="Rectangle 27537" width="39.36" height="23.705" transform="translate(0 -0.001)" fill="none"/>
    </clipPath>
  </defs>
  <g id="Cloud" transform="translate(-391 -1159)" clip-path="url(#clip-path)">
    <g id="Group_19299" data-name="Group 19299" transform="translate(391.364 1163.358)">
      <g id="Group_19298" data-name="Group 19298" clip-path="url(#clip-path-2)">
        <path id="Path_49247" data-name="Path 49247" d="M39.36,15.99a7.71,7.71,0,0,1-7.7,7.7H25.49a.735.735,0,0,1,0-1.47h6.17A6.226,6.226,0,0,0,33.34,10V9.9a8.433,8.433,0,0,0-8.43-8.41H24.9a8.38,8.38,0,0,0-7.49,4.59,5.077,5.077,0,0,0-1.58-1.09A4.954,4.954,0,0,0,9.32,7.57a4.875,4.875,0,0,0-.4,1.96v.24H7.71a6.225,6.225,0,0,0,.02,12.45h2.78c.19,0,.27,0,.51.01,2.83.01,7.09.04,9.9-2.74,1.77-1.77,2.79-4.49,3.03-8.1l.07-1.07-2.31,2.32a.739.739,0,1,1-1.05-1.04L24.2,8.06a.8.8,0,0,1,.27-.18c.01,0,.02-.01.03-.01l.12-.03a.433.433,0,0,1,.16-.01.453.453,0,0,1,.16.03,1.192,1.192,0,0,1,.2.08c.05.03.1.06.14.09l3.59,3.58a.739.739,0,1,1-1.04,1.05L25.48,10.3l-.04.92a18.867,18.867,0,0,1-.92,5.1,11.038,11.038,0,0,1-2.55,4.21,10.529,10.529,0,0,1-5.62,2.81,22.952,22.952,0,0,1-4.53.36H7.69A7.7,7.7,0,0,1,7.26,8.31l.3-.02L7.63,8a6.339,6.339,0,0,1,2.9-3.96,6.42,6.42,0,0,1,4.86-.75,6.53,6.53,0,0,1,1.34.49l.29.15.2-.25a10.267,10.267,0,0,1,.7-.78,9.9,9.9,0,0,1,14,0,9.933,9.933,0,0,1,2.83,5.83l.02.21.2.1a7.746,7.746,0,0,1,4.39,6.95" fill="#141212"/>
      </g>
    </g>
  </g>
</svg>
