<svg xmlns="http://www.w3.org/2000/svg" width="24" height="28.516" viewBox="0 0 24 28.516">
  <g id="Group_17918" data-name="Group 17918" transform="translate(0)">
    <path id="Path_48564" data-name="Path 48564" d="M-70.681-866.145q0-3.953,0-7.907c0-.568.016-.568-.568-.568-.409,0-.817-.007-1.226,0-.163,0-.23-.026-.229-.207.009-1.132.011-2.265,0-3.4,0-.219.106-.209.26-.209,1.818,0,3.637-.005,5.455,0,.246,0,.315-.066.294-.3a3.343,3.343,0,0,1,3.529-3.5c1.645-.011,3.289-.008,4.934,0a3.813,3.813,0,0,1,2,.57,2.969,2.969,0,0,1,1.525,2.906c-.015.225.04.307.295.306,1.808-.007,3.616.009,5.424,0,.235,0,.285.062.283.283q-.018,1.638,0,3.277c0,.215-.063.268-.274.262-.521-.015-1.042,0-1.563-.008-.157,0-.2.038-.2.2.091,5.311.022,10.622.038,15.933a5.7,5.7,0,0,1-.652,2.81,3.515,3.515,0,0,1-3.243,1.952q-6.114.028-12.228,0a3.675,3.675,0,0,1-3.536-2.657,6.983,6.983,0,0,1-.334-2.278q.006-3.743,0-7.486Zm17.974.092q0-3.713,0-7.427c0-.27-.022-.541-.022-.811s-.105-.337-.381-.336q-7.585.015-15.171.007a1.408,1.408,0,0,1-.153,0c-.152-.017-.219.035-.221.2,0,.32-.045.64-.045.96q0,7.366,0,14.733a10.647,10.647,0,0,0,.054,1.08,1.964,1.964,0,0,0,2.272,2.024h2.728q4.413,0,8.827,0a1.8,1.8,0,0,0,1.989-1.566,6.158,6.158,0,0,0,.13-1.4Q-52.71-862.325-52.707-866.053Zm-7.971-12.378c1.245,0,2.491,0,3.736,0,.083,0,.2.068.243-.094a1.329,1.329,0,0,0-.79-1.616,1.868,1.868,0,0,0-.769-.173c-1.633,0-3.267-.024-4.9.008a1.4,1.4,0,0,0-1.554,1.612c0,.242.084.272.3.27C-63.17-878.436-61.924-878.431-60.679-878.431Z" transform="translate(72.702 882.229)" fill="#979593"/>
    <path id="Path_48565" data-name="Path 48565" d="M106.005-717.091c0-2.424,0-4.849-.006-7.273,0-.253.065-.32.313-.308.44.021.882.021,1.321,0,.259-.012.347.044.346.331-.012,3.136-.008,6.271-.008,9.407,0,1.733,0,3.466.005,5.2,0,.22-.045.293-.277.283-.47-.02-.942-.023-1.411,0-.256.013-.289-.086-.288-.307Q106.011-713.425,106.005-717.091Z" transform="translate(-94.991 734.174)" fill="#979593"/>
    <path id="Path_48566" data-name="Path 48566" d="M187.408-717.079c0-2.434,0-4.868-.006-7.3,0-.237.035-.33.3-.316.479.026.961.017,1.441,0,.191-.006.231.057.23.237-.008,1.082,0,2.163,0,3.245q0,5.694.005,11.388c0,.26-.044.37-.335.351a11.309,11.309,0,0,0-1.291,0c-.261.013-.35-.045-.348-.333C187.414-712.231,187.408-714.655,187.408-717.079Z" transform="translate(-171.378 734.196)" fill="#979593"/>
    <path id="Path_48567" data-name="Path 48567" d="M26.813-717.061c0,2.435,0,4.87.005,7.305,0,.231-.051.311-.294.3-.46-.021-.922-.022-1.382,0-.251.013-.29-.079-.288-.3.01-1.283,0-2.565,0-3.848q0-5.381-.006-10.763c0-.25.056-.32.308-.308.46.023.922.021,1.382,0,.23-.01.276.059.275.28C26.81-721.952,26.813-719.506,26.813-717.061Z" transform="translate(-18.845 734.178)" fill="#979593"/>
  </g>
</svg>
