<svg xmlns="http://www.w3.org/2000/svg" xmlns:xlink="http://www.w3.org/1999/xlink" width="1920" height="99" viewBox="0 0 1920 99">
  <defs>
    <linearGradient id="linear-gradient" x1="0.356" y1="0.5" x2="0.77" y2="0.5" gradientUnits="objectBoundingBox">
      <stop offset="0" stop-color="#6264a7"/>
      <stop offset="1" stop-color="#464775"/>
    </linearGradient>
    <linearGradient id="linear-gradient-2" x1="0.356" y1="0.5" x2="0.77" y2="0.5" gradientUnits="objectBoundingBox">
      <stop offset="0" stop-color="#6264a7"/>
      <stop offset="1" stop-color="#33344a"/>
    </linearGradient>
    <clipPath id="clip-path">
      <rect id="Rectangle_2" data-name="Rectangle 2" width="784" height="99" transform="translate(890 66)" fill="url(#linear-gradient)"/>
    </clipPath>
  </defs>
  <g id="Group_18747" data-name="Group 18747" transform="translate(0 -66)">
    <rect id="Rectangle_25657" data-name="Rectangle 25657" width="1920" height="98" transform="translate(0 67)" fill="url(#linear-gradient-2)"/>
    <g id="Mask_Group_10" data-name="Mask Group 10" transform="translate(246)" clip-path="url(#clip-path)">
      <g id="Group_18374" data-name="Group 18374" transform="translate(890.315 56.259)">
        <g id="Group_17853" data-name="Group 17853" transform="translate(180.244 81.118) rotate(-13)" opacity="0.866">
          <g id="Component_12_169" data-name="Component 12 – 169">
            <rect id="Rectangle_25642" data-name="Rectangle 25642" width="41.684" height="38.707" fill="none"/>
            <g id="Group_15966" data-name="Group 15966" transform="translate(0.218 1.309)">
              <path id="Path_48355" data-name="Path 48355" d="M444.378,148.441l.162.168C444.428,148.609,444.37,148.557,444.378,148.441Z" transform="translate(-410.211 -131.388)" fill="#bdbde6" stroke="#707070" stroke-width="0.2"/>
              <path id="Path_48507" data-name="Path 48507" d="M43.565,55V51.529a1.337,1.337,0,0,0-1.581-1.395c-1.657.1-29.661,0-29.661,0s-1.135-.061-1.134,1.395,0,18.607,0,18.607a1.381,1.381,0,0,0,1.378,1.517c1.507.1,17.967.1,17.967.1S24.422,55.91,43.565,55Z" transform="translate(-9.019 -39.196)" fill="none" stroke="#bdbde6" stroke-width="0.2"/>
              <g id="Group_15960" data-name="Group 15960" transform="translate(8.428 0)">
                <path id="Path_48339" data-name="Path 48339" d="M394.77,60.054c0,.572.023,1.145-.006,1.715a1.327,1.327,0,1,1-2.654-.021c-.03-1.114-.054-2.233.009-3.344.057-1.007.461-1.259,1.545-1.261.729,0,1.084.561,1.105,1.281.017.543,0,1.086,0,1.63Z" transform="translate(-375.054 -57.144)" fill="none" stroke="#bdbde6" stroke-width="0.2"/>
                <path id="Path_48340" data-name="Path 48340" d="M296.006,62.467a1.407,1.407,0,0,1-1.687.634,1.312,1.312,0,0,1-.921-1.392c.012-1.029,0-2.058,0-3.087,0-.664.238-1.252.934-1.336.681-.083,1.483-.138,1.67.859.032.117.024.2.054.393a4.493,4.493,0,0,1,0,.451C296.065,60.239,296,61.217,296.006,62.467Z" transform="translate(-293.398 -57.228)" fill="none" stroke="#bdbde6" stroke-width="0.2"/>
              </g>
              <g id="Group_15959" data-name="Group 15959" transform="translate(0 3.455)">
                <g id="Group_15958" data-name="Group 15958" transform="translate(0 0)">
                  <path id="Path_48331" data-name="Path 48331" d="M256.658,77.1c3.728-.012,7.456-.007,11.184-.048.734-.008,1.258.007,1.118.861a3.674,3.674,0,0,0,.657,1.761,3.26,3.26,0,0,0,1.638.986c.646.158,1.34-.408,1.857-.907a1.437,1.437,0,0,0,.291-.45,4.453,4.453,0,0,0,.13-.578c.054-.143-.063-1.04.31-1.548.141-.194,1.013-.135,1.29-.118.892.054,1.79.019,2.686.022a5.138,5.138,0,0,1,3.526,4.169c0-.037,0,.033.011.074l.03.117c.051.409-.006-1.221,0,.663.006,1.94,0,4.688,0,7.032v.681c.026.526-.286.477-.616.346-.529-.209-1.05-.437-1.574-.656l-.167-.174a6.79,6.79,0,0,1,0-1.033c0-.661.021-1.431,0-2.156-.033-1.171-.523-1.6-1.7-1.6q-14.339-.007-28.677,0c-1.1,0-1.891.1-1.944,1.2,0-.005,0,.35,0,.418-.006,6.057-.005,12.131,0,18.188a1.519,1.519,0,0,0,1.548,1.633,4.376,4.376,0,0,0,.447,0c5.425,0,10.858.135,16.283.138a4.463,4.463,0,0,0,1.123-.033c.365.583.694.973,1.051,1.46-.112.62-.609.413-.965.414-6.138.011-12.158.147-18.3.154-.223,0-.455,0-.779,0h-.334a2.853,2.853,0,0,1-2.219-2.9q-.016-11.675,0-23.349a4.614,4.614,0,0,1,4.1-4.739h.677c.129,0,.225.007.382,0h.24a2.472,2.472,0,0,0,.381,0c.075,0,.327.011.527,0,.292-.016,1.055,0,1.055,0a4.894,4.894,0,0,1,.05.669l.113,1.013a2.4,2.4,0,0,0,2.443,1.64c1.083-.105,1.779-.818,2.1-2.154Z" transform="translate(-244.551 -77.035)" fill="none" stroke="#bdbde6" stroke-width="0.2"/>
                  <path id="Path_48353" data-name="Path 48353" d="M457.562,102.318Z" transform="translate(-420.752 -97.979)" fill="#f76101" stroke="#bdbde6" stroke-width="0.2"/>
                </g>
              </g>
              <g id="Group_15962" data-name="Group 15962" transform="translate(21.57 17.27)">
                <path id="Path_48332" data-name="Path 48332" d="M390.955,167.287a9.737,9.737,0,1,1-9.618-9.8A9.713,9.713,0,0,1,390.955,167.287Zm-1.942-1.249a7.885,7.885,0,0,0-5.437-6.336c-1.364-.421-1.368-.423-1.554.922a.8.8,0,0,1-1.6.009,2.433,2.433,0,0,1,0-.613c.1-.613-.185-.669-.695-.549a7.825,7.825,0,0,0-6.016,5.41c-.157.469-.442,1.018-.23,1.428.152.294.761.069,1.164.112a.8.8,0,0,1-.017,1.593,2.412,2.412,0,0,1-.526,0c-.689-.1-.745.188-.6.79a7.8,7.8,0,0,0,5.473,5.958c1.292.423,1.308.4,1.442-.889.054-.516.3-.835.828-.818a.752.752,0,0,1,.776.865,2.976,2.976,0,0,1,0,.438c-.1.633.172.728.738.595a7.8,7.8,0,0,0,5.989-5.434c.146-.44.425-.951.225-1.347-.187-.37-.743-.077-1.127-.156-.028-.006-.059,0-.087-.007a.795.795,0,0,1,.029-1.582,5.791,5.791,0,0,1,.876-.008C388.994,166.44,389.074,166.286,389.012,166.039Z" transform="translate(-371.48 -157.484)" fill="none" stroke="#bdbde6" stroke-width="0.2"/>
                <path id="Path_48357" data-name="Path 48357" d="M398.054,175.131c.061.247-.019.4-.35.383a5.788,5.788,0,0,0-.876.008.795.795,0,0,0-.029,1.582c.029,0,.059,0,.087.007.384.08.939-.214,1.127.156.2.4-.079.908-.225,1.347a7.8,7.8,0,0,1-5.989,5.434c-.566.133-.836.038-.738-.595a2.956,2.956,0,0,0,0-.438.752.752,0,0,0-.775-.865c-.529-.016-.774.3-.828.818-.134,1.286-.151,1.312-1.442.889a7.8,7.8,0,0,1-5.473-5.958c-.144-.6-.088-.889.6-.79a2.41,2.41,0,0,0,.526,0,.8.8,0,0,0,.017-1.593c-.4-.043-1.012.182-1.164-.112-.212-.41.073-.959.23-1.428a7.824,7.824,0,0,1,6.016-5.41c.51-.12.79-.064.695.549a2.436,2.436,0,0,0,0,.613.8.8,0,0,0,1.6-.009c.186-1.345.19-1.343,1.554-.922A7.885,7.885,0,0,1,398.054,175.131Zm-8.237,1.759c1.435.711,2.874,1.416,4.3,2.136.468.236.923.335,1.207-.2.321-.608-.117-.9-.593-1.138-1.047-.513-2.087-1.038-3.146-1.525a.834.834,0,0,1-.587-.925c.051-.756,0-1.517.018-2.276.015-.565-.09-.991-.787-.954s-.772.483-.671,1.039c-.02,1.133-.037,2.267-.06,3.4A.381.381,0,0,0,389.816,176.89Z" transform="translate(-380.521 -166.577)" fill="none" stroke="#bdbde6" stroke-width="0.2"/>
                <g id="Group_15824" data-name="Group 15824" transform="translate(8.98 9.396)">
                  <path id="Path_48359" data-name="Path 48359" d="M422.6,208.2C422.627,207.07,422.6,208.35,422.6,208.2Z" transform="translate(-422.604 -207.731)" fill="none" stroke="#bdbde6" stroke-width="0.2"/>
                </g>
              </g>
              <path id="Path_48333" data-name="Path 48333" d="M283.81,145.931c-.772,0-1.546-.025-2.317.01-.494.022-.658-.163-.64-.642.027-.743.02-1.488,0-2.231-.01-.439.16-.6.607-.6q2.446.028,4.892,0c.421,0,.55.17.543.562-.015.772-.021,1.545,0,2.317.014.448-.154.6-.6.588C285.47,145.911,284.64,145.931,283.81,145.931Z" transform="translate(-275.243 -127.749)" fill="none" stroke="#bdbde6" stroke-width="0.2"/>
              <path id="Path_48334" data-name="Path 48334" d="M283.883,177.9c-.8,0-1.6-.015-2.4.006-.418.011-.644-.093-.63-.567.024-.772.02-1.545,0-2.317-.012-.455.185-.587.619-.582,1.6.018,3.2.024,4.806,0,.512-.009.639.2.622.661-.025.714-.035,1.432,0,2.145.03.548-.191.69-.7.665C285.43,177.868,284.656,177.9,283.883,177.9Z" transform="translate(-275.242 -154.197)" fill="none" stroke="#bdbde6" stroke-width="0.2"/>
              <path id="Path_48335" data-name="Path 48335" d="M283.831,205.579c.8,0,1.609.021,2.413-.008.5-.018.659.183.642.658-.025.717-.035,1.438,0,2.154.029.548-.2.677-.708.669-1.551-.026-3.1-.029-4.653,0-.534.011-.715-.173-.693-.692.03-.717.026-1.437,0-2.154-.018-.5.2-.652.67-.636C282.279,205.6,283.056,205.579,283.831,205.579Z" transform="translate(-275.227 -179.961)" fill="none" stroke="#bdbde6" stroke-width="0.2"/>
              <path id="Path_48336" data-name="Path 48336" d="M336.56,145.937c-.8,0-1.6-.016-2.4.006-.409.011-.566-.147-.558-.551.015-.8.01-1.6,0-2.4,0-.362.154-.51.517-.508,1.66.008,3.32.012,4.979,0,.414,0,.555.156.545.558-.019.772-.024,1.546,0,2.318.015.448-.144.609-.595.593C338.22,145.918,337.39,145.938,336.56,145.937Z" transform="translate(-318.889 -127.754)" fill="none" stroke="#bdbde6" stroke-width="0.2"/>
              <path id="Path_48337" data-name="Path 48337" d="M336.672,174.435c.774,0,1.549.026,2.322-.008.5-.022.6.182.64.65.08.984-.571,1.722-.774,2.6-.072.313-.372.2-.582.2-1.348.008-2.7-.01-4.042.012-.469.008-.683-.123-.661-.63.032-.744.023-1.491,0-2.236-.012-.442.152-.617.6-.6C335.009,174.451,335.841,174.434,336.672,174.435Z" transform="translate(-318.867 -154.19)" fill="none" stroke="#bdbde6" stroke-width="0.2"/>
              <g id="Group_15823" data-name="Group 15823" transform="translate(24.398 14.964)">
                <path id="Path_48341" data-name="Path 48341" d="M395.326,143.47a12.471,12.471,0,0,0-5.315,1.643c.016-.677-.053-2.064-.1-2.431h5.413c.007.153-.013.236,0,.381v.406Z" transform="translate(-389.914 -142.683)" fill="none" stroke="#bdbde6" stroke-width="0.2"/>
              </g>
            </g>
          </g>
        </g>
        <g id="Group_18373" data-name="Group 18373">
          <g id="Group_17835" data-name="Group 17835" transform="translate(722.789 78.152)" opacity="0.866">
            <path id="Path_48364" data-name="Path 48364" d="M17.244,0A17.244,17.244,0,1,0,34.487,17.244,17.244,17.244,0,0,0,17.244,0M30.272,21.666c-.222.654-1.319.923-1.641,1.526s.057,1.673-.358,2.218-1.54.453-2.037.927-.46,1.606-1.024,2-1.6-.043-2.221.258-.918,1.39-1.577,1.594-1.512-.526-2.2-.423c-.666.1-1.282,1.052-1.976,1.052s-1.31-.952-1.976-1.052c-.684-.1-1.551.624-2.2.423s-.967-1.3-1.577-1.594-1.662.13-2.221-.258-.53-1.527-1.024-2-1.622-.383-2.037-.927S6.175,23.8,5.85,23.192s-1.419-.872-1.641-1.526.482-1.532.369-2.217c-.11-.668-1.061-1.28-1.061-1.978s.951-1.31,1.061-1.978c.113-.685-.589-1.572-.369-2.217s1.319-.923,1.641-1.526-.057-1.674.358-2.219,1.54-.453,2.037-.927.46-1.606,1.024-2,1.6.043,2.221-.258.918-1.39,1.577-1.594,1.512.526,2.2.423c.666-.1,1.282-1.052,1.976-1.052s1.31.952,1.976,1.052c.684.1,1.551-.624,2.2-.423s.967,1.3,1.577,1.594,1.662-.13,2.221.258.53,1.527,1.024,2,1.622.383,2.037.927.034,1.612.358,2.218,1.419.872,1.641,1.526-.482,1.532-.369,2.217c.11.668,1.061,1.28,1.061,1.978s-.951,1.31-1.061,1.978C29.79,20.135,30.491,21.022,30.272,21.666Z" transform="translate(0 0)" fill="none" stroke="#bdbde6" stroke-width="0.2"/>
            <path id="Path_48363" data-name="Path 48363" d="M4.072,10.221.966,7.917,0,9.233l4.658,3.456L13.126,1.152,11.573,0l-7.5,10.221" transform="translate(10.413 11.266)" fill="none" stroke="#bdbde6" stroke-width="0.2"/>
          </g>
          <g id="Group_17837" data-name="Group 17837" transform="translate(503.587 13.001) rotate(-13)" opacity="0.866">
            <g id="Component_12_170" data-name="Component 12 – 170" transform="translate(0)">
              <rect id="Rectangle_25642-2" data-name="Rectangle 25642" width="41.684" height="38.707" fill="none"/>
              <g id="Group_15966-2" data-name="Group 15966" transform="translate(0.218 1.309)">
                <path id="Path_48355-2" data-name="Path 48355" d="M444.378,148.441l.162.168C444.428,148.609,444.37,148.557,444.378,148.441Z" transform="translate(-410.211 -131.388)" fill="#bdbde6" stroke="#707070" stroke-width="0.2"/>
                <path id="Path_48507-2" data-name="Path 48507" d="M43.565,55V51.529a1.337,1.337,0,0,0-1.581-1.395c-1.657.1-29.661,0-29.661,0s-1.135-.061-1.134,1.395,0,18.607,0,18.607a1.381,1.381,0,0,0,1.378,1.517c1.507.1,17.967.1,17.967.1S24.422,55.91,43.565,55Z" transform="translate(-9.019 -39.196)" fill="none" stroke="#bdbde6" stroke-width="0.2"/>
                <g id="Group_15960-2" data-name="Group 15960" transform="translate(8.428 0)">
                  <path id="Path_48339-2" data-name="Path 48339" d="M394.77,60.054c0,.572.023,1.145-.006,1.715a1.327,1.327,0,1,1-2.654-.021c-.03-1.114-.054-2.233.009-3.344.057-1.007.461-1.259,1.545-1.261.729,0,1.084.561,1.105,1.281.017.543,0,1.086,0,1.63Z" transform="translate(-375.054 -57.144)" fill="none" stroke="#bdbde6" stroke-width="0.2"/>
                  <path id="Path_48340-2" data-name="Path 48340" d="M296.006,62.467a1.407,1.407,0,0,1-1.687.634,1.312,1.312,0,0,1-.921-1.392c.012-1.029,0-2.058,0-3.087,0-.664.238-1.252.934-1.336.681-.083,1.483-.138,1.67.859.032.117.024.2.054.393a4.493,4.493,0,0,1,0,.451C296.065,60.239,296,61.217,296.006,62.467Z" transform="translate(-293.398 -57.228)" fill="none" stroke="#bdbde6" stroke-width="0.2"/>
                </g>
                <g id="Group_15959-2" data-name="Group 15959" transform="translate(0 3.455)">
                  <g id="Group_15958-2" data-name="Group 15958" transform="translate(0 0)">
                    <path id="Path_48331-2" data-name="Path 48331" d="M256.658,77.1c3.728-.012,7.456-.007,11.184-.048.734-.008,1.258.007,1.118.861a3.674,3.674,0,0,0,.657,1.761,3.26,3.26,0,0,0,1.638.986c.646.158,1.34-.408,1.857-.907a1.437,1.437,0,0,0,.291-.45,4.453,4.453,0,0,0,.13-.578c.054-.143-.063-1.04.31-1.548.141-.194,1.013-.135,1.29-.118.892.054,1.79.019,2.686.022a5.138,5.138,0,0,1,3.526,4.169c0-.037,0,.033.011.074l.03.117c.051.409-.006-1.221,0,.663.006,1.94,0,4.688,0,7.032v.681c.026.526-.286.477-.616.346-.529-.209-1.05-.437-1.574-.656l-.167-.174a6.79,6.79,0,0,1,0-1.033c0-.661.021-1.431,0-2.156-.033-1.171-.523-1.6-1.7-1.6q-14.339-.007-28.677,0c-1.1,0-1.891.1-1.944,1.2,0-.005,0,.35,0,.418-.006,6.057-.005,12.131,0,18.188a1.519,1.519,0,0,0,1.548,1.633,4.376,4.376,0,0,0,.447,0c5.425,0,10.858.135,16.283.138a4.463,4.463,0,0,0,1.123-.033c.365.583.694.973,1.051,1.46-.112.62-.609.413-.965.414-6.138.011-12.158.147-18.3.154-.223,0-.455,0-.779,0h-.334a2.853,2.853,0,0,1-2.219-2.9q-.016-11.675,0-23.349a4.614,4.614,0,0,1,4.1-4.739h.677c.129,0,.225.007.382,0h.24a2.472,2.472,0,0,0,.381,0c.075,0,.327.011.527,0,.292-.016,1.055,0,1.055,0a4.894,4.894,0,0,1,.05.669l.113,1.013a2.4,2.4,0,0,0,2.443,1.64c1.083-.105,1.779-.818,2.1-2.154Z" transform="translate(-244.551 -77.035)" fill="none" stroke="#bdbde6" stroke-width="0.2"/>
                    <path id="Path_48353-2" data-name="Path 48353" d="M457.562,102.318Z" transform="translate(-420.752 -97.979)" fill="#f76101" stroke="#bdbde6" stroke-width="0.2"/>
                  </g>
                </g>
                <g id="Group_15962-2" data-name="Group 15962" transform="translate(21.57 17.27)">
                  <path id="Path_48332-2" data-name="Path 48332" d="M390.955,167.287a9.737,9.737,0,1,1-9.618-9.8A9.713,9.713,0,0,1,390.955,167.287Zm-1.942-1.249a7.885,7.885,0,0,0-5.437-6.336c-1.364-.421-1.368-.423-1.554.922a.8.8,0,0,1-1.6.009,2.433,2.433,0,0,1,0-.613c.1-.613-.185-.669-.695-.549a7.825,7.825,0,0,0-6.016,5.41c-.157.469-.442,1.018-.23,1.428.152.294.761.069,1.164.112a.8.8,0,0,1-.017,1.593,2.412,2.412,0,0,1-.526,0c-.689-.1-.745.188-.6.79a7.8,7.8,0,0,0,5.473,5.958c1.292.423,1.308.4,1.442-.889.054-.516.3-.835.828-.818a.752.752,0,0,1,.776.865,2.976,2.976,0,0,1,0,.438c-.1.633.172.728.738.595a7.8,7.8,0,0,0,5.989-5.434c.146-.44.425-.951.225-1.347-.187-.37-.743-.077-1.127-.156-.028-.006-.059,0-.087-.007a.795.795,0,0,1,.029-1.582,5.791,5.791,0,0,1,.876-.008C388.994,166.44,389.074,166.286,389.012,166.039Z" transform="translate(-371.48 -157.484)" fill="none" stroke="#bdbde6" stroke-width="0.2"/>
                  <path id="Path_48357-2" data-name="Path 48357" d="M398.054,175.131c.061.247-.019.4-.35.383a5.788,5.788,0,0,0-.876.008.795.795,0,0,0-.029,1.582c.029,0,.059,0,.087.007.384.08.939-.214,1.127.156.2.4-.079.908-.225,1.347a7.8,7.8,0,0,1-5.989,5.434c-.566.133-.836.038-.738-.595a2.956,2.956,0,0,0,0-.438.752.752,0,0,0-.775-.865c-.529-.016-.774.3-.828.818-.134,1.286-.151,1.312-1.442.889a7.8,7.8,0,0,1-5.473-5.958c-.144-.6-.088-.889.6-.79a2.41,2.41,0,0,0,.526,0,.8.8,0,0,0,.017-1.593c-.4-.043-1.012.182-1.164-.112-.212-.41.073-.959.23-1.428a7.824,7.824,0,0,1,6.016-5.41c.51-.12.79-.064.695.549a2.436,2.436,0,0,0,0,.613.8.8,0,0,0,1.6-.009c.186-1.345.19-1.343,1.554-.922A7.885,7.885,0,0,1,398.054,175.131Zm-8.237,1.759c1.435.711,2.874,1.416,4.3,2.136.468.236.923.335,1.207-.2.321-.608-.117-.9-.593-1.138-1.047-.513-2.087-1.038-3.146-1.525a.834.834,0,0,1-.587-.925c.051-.756,0-1.517.018-2.276.015-.565-.09-.991-.787-.954s-.772.483-.671,1.039c-.02,1.133-.037,2.267-.06,3.4A.381.381,0,0,0,389.816,176.89Z" transform="translate(-380.521 -166.577)" fill="none" stroke="#bdbde6" stroke-width="0.2"/>
                  <g id="Group_15824-2" data-name="Group 15824" transform="translate(8.98 9.396)">
                    <path id="Path_48359-2" data-name="Path 48359" d="M422.6,208.2C422.627,207.07,422.6,208.35,422.6,208.2Z" transform="translate(-422.604 -207.731)" fill="none" stroke="#bdbde6" stroke-width="0.2"/>
                  </g>
                </g>
                <path id="Path_48333-2" data-name="Path 48333" d="M283.81,145.931c-.772,0-1.546-.025-2.317.01-.494.022-.658-.163-.64-.642.027-.743.02-1.488,0-2.231-.01-.439.16-.6.607-.6q2.446.028,4.892,0c.421,0,.55.17.543.562-.015.772-.021,1.545,0,2.317.014.448-.154.6-.6.588C285.47,145.911,284.64,145.931,283.81,145.931Z" transform="translate(-275.243 -127.749)" fill="none" stroke="#bdbde6" stroke-width="0.2"/>
                <path id="Path_48334-2" data-name="Path 48334" d="M283.883,177.9c-.8,0-1.6-.015-2.4.006-.418.011-.644-.093-.63-.567.024-.772.02-1.545,0-2.317-.012-.455.185-.587.619-.582,1.6.018,3.2.024,4.806,0,.512-.009.639.2.622.661-.025.714-.035,1.432,0,2.145.03.548-.191.69-.7.665C285.43,177.868,284.656,177.9,283.883,177.9Z" transform="translate(-275.242 -154.197)" fill="none" stroke="#bdbde6" stroke-width="0.2"/>
                <path id="Path_48335-2" data-name="Path 48335" d="M283.831,205.579c.8,0,1.609.021,2.413-.008.5-.018.659.183.642.658-.025.717-.035,1.438,0,2.154.029.548-.2.677-.708.669-1.551-.026-3.1-.029-4.653,0-.534.011-.715-.173-.693-.692.03-.717.026-1.437,0-2.154-.018-.5.2-.652.67-.636C282.279,205.6,283.056,205.579,283.831,205.579Z" transform="translate(-275.227 -179.961)" fill="none" stroke="#bdbde6" stroke-width="0.2"/>
                <path id="Path_48336-2" data-name="Path 48336" d="M336.56,145.937c-.8,0-1.6-.016-2.4.006-.409.011-.566-.147-.558-.551.015-.8.01-1.6,0-2.4,0-.362.154-.51.517-.508,1.66.008,3.32.012,4.979,0,.414,0,.555.156.545.558-.019.772-.024,1.546,0,2.318.015.448-.144.609-.595.593C338.22,145.918,337.39,145.938,336.56,145.937Z" transform="translate(-318.889 -127.754)" fill="none" stroke="#bdbde6" stroke-width="0.2"/>
                <path id="Path_48337-2" data-name="Path 48337" d="M336.672,174.435c.774,0,1.549.026,2.322-.008.5-.022.6.182.64.65.08.984-.571,1.722-.774,2.6-.072.313-.372.2-.582.2-1.348.008-2.7-.01-4.042.012-.469.008-.683-.123-.661-.63.032-.744.023-1.491,0-2.236-.012-.442.152-.617.6-.6C335.009,174.451,335.841,174.434,336.672,174.435Z" transform="translate(-318.867 -154.19)" fill="none" stroke="#bdbde6" stroke-width="0.2"/>
                <g id="Group_15823-2" data-name="Group 15823" transform="translate(24.398 14.964)">
                  <path id="Path_48341-2" data-name="Path 48341" d="M395.326,143.47a12.471,12.471,0,0,0-5.315,1.643c.016-.677-.053-2.064-.1-2.431h5.413c.007.153-.013.236,0,.381v.406Z" transform="translate(-389.914 -142.683)" fill="none" stroke="#bdbde6" stroke-width="0.2"/>
                </g>
              </g>
            </g>
          </g>
          <g id="Group_17845" data-name="Group 17845" transform="translate(607.825 12.257) rotate(-14)" opacity="0.866">
            <g id="Group_17843" data-name="Group 17843">
              <g id="Icon_ionic-ios-people" data-name="Icon ionic-ios-people" transform="translate(0 14.881)">
                <path id="Path_31691" data-name="Path 31691" d="M26.247,25.333c-1.264-.451-3.329-.474-4.243-.824a5.994,5.994,0,0,1-1.963-.914c-.327-.395-.327-3.216-.327-3.216a5.2,5.2,0,0,0,1.117-1.58,17.558,17.558,0,0,0,.542-3.1s.745.316,1.038-1.174c.248-1.286.722-1.963.6-2.911s-.654-.722-.654-.722.654-.959.654-4.22C23.009,3.306,20.47,0,15.719,0s-7.3,3.318-7.3,6.669c0,3.261.643,4.22.643,4.22s-.53-.226-.654.722.339,1.625.6,2.911c.293,1.5,1.038,1.174,1.038,1.174a17.727,17.727,0,0,0,.542,3.1A5.2,5.2,0,0,0,11.7,20.38s0,2.821-.327,3.216a5.769,5.769,0,0,1-1.963.9c-.9.35-2.968.395-4.243.846A7.964,7.964,0,0,0,0,32.928H31.4A7.948,7.948,0,0,0,26.247,25.333Z" transform="translate(9.592 0)" fill="none" stroke="#bdbde6" stroke-width="0.2"/>
                <path id="Path_31693" data-name="Path 31693" d="M3.769,14.286S1.072,14.2,0,13.237C1.749,10.585.8,7.493,1.162,4.6S3.16,0,6.432,0h.045c3.16,0,4.864,1.715,5.225,4.6s-.643,6.319,1.151,8.633c-1.072.97-3.78.937-3.78.937h0a5.715,5.715,0,0,0,.113,1.9,2.849,2.849,0,0,0,1.354.621,26.184,26.184,0,0,1,2.923.812,4.751,4.751,0,0,1,2.55,4.2H6.951C6.7,20.8,5,19.183,3.34,18.337A7.578,7.578,0,0,0,.553,17.75s-.429-.677.982-.937A9.62,9.62,0,0,0,3.7,16.058C3.916,15.809,3.769,14.286,3.769,14.286Z" transform="translate(34.654 5.552)" fill="none" stroke="#bdbde6" stroke-width="0.2"/>
                <g id="Group_15807" data-name="Group 15807" transform="translate(0 5.552)">
                  <path id="Path_31692" data-name="Path 31692" d="M12.244,14.286s2.7-.09,3.769-1.049c-1.749-2.652-.8-5.744-1.162-8.633S12.853,0,9.58,0H9.535C6.376,0,4.672,1.715,4.311,4.6s.643,6.319-1.151,8.633c1.072.97,3.78.937,3.78.937h0a5.715,5.715,0,0,1-.113,1.9,2.849,2.849,0,0,1-1.354.621A26.183,26.183,0,0,0,2.55,17.5,4.751,4.751,0,0,0,0,21.7H9.061c.248-.9,1.952-2.516,3.611-3.363a7.578,7.578,0,0,1,2.787-.587s.429-.677-.982-.937a9.619,9.619,0,0,1-2.167-.756C12.1,15.809,12.244,14.286,12.244,14.286Z" fill="none" stroke="#bdbde6" stroke-width="0.2"/>
                </g>
              </g>
              <path id="Icon_awesome-plus" data-name="Icon awesome-plus" d="M11.674,4.939H7.633V.9a.9.9,0,0,0-.9-.9h-.9a.9.9,0,0,0-.9.9V4.939H.9a.9.9,0,0,0-.9.9v.9a.9.9,0,0,0,.9.9H4.939v4.041a.9.9,0,0,0,.9.9h.9a.9.9,0,0,0,.9-.9V7.633h4.041a.9.9,0,0,0,.9-.9v-.9A.9.9,0,0,0,11.674,4.939Z" transform="translate(19.048 0)" fill="none" stroke="#bdbde6" stroke-width="0.2"/>
            </g>
          </g>
          <g id="Group_17848" data-name="Group 17848" transform="translate(319.289 69.949) rotate(25)" opacity="0.866">
            <g id="Group_17843-2" data-name="Group 17843" transform="translate(0)">
              <g id="Icon_ionic-ios-people-2" data-name="Icon ionic-ios-people" transform="translate(0 12.393)">
                <path id="Path_31691-2" data-name="Path 31691" d="M21.859,21.1c-1.053-.376-2.772-.395-3.533-.686a4.992,4.992,0,0,1-1.635-.761,10.1,10.1,0,0,1-.273-2.678,4.327,4.327,0,0,0,.93-1.316,14.622,14.622,0,0,0,.451-2.584s.62.263.865-.977c.207-1.071.6-1.635.5-2.425s-.545-.6-.545-.6.545-.8.545-3.515c0-2.8-2.114-5.554-6.071-5.554s-6.08,2.763-6.08,5.554c0,2.716.536,3.515.536,3.515S7.1,8.881,7,9.67s.282,1.353.5,2.425c.244,1.25.865.977.865.977a14.763,14.763,0,0,0,.451,2.584,4.327,4.327,0,0,0,.93,1.316,10.1,10.1,0,0,1-.273,2.678,4.8,4.8,0,0,1-1.635.752c-.752.291-2.472.329-3.533.7A6.632,6.632,0,0,0,0,27.422H26.153A6.619,6.619,0,0,0,21.859,21.1Z" transform="translate(7.988 0)" fill="none" stroke="#bdbde6" stroke-width="0.2"/>
                <path id="Path_31693-2" data-name="Path 31693" d="M3.139,11.9S.893,11.822,0,11.023C1.457,8.815.667,6.24.968,3.834A3.965,3.965,0,0,1,5.357,0h.038A3.977,3.977,0,0,1,9.745,3.834c.3,2.4-.536,5.263.959,7.189-.893.808-3.148.78-3.148.78h0a4.759,4.759,0,0,0,.094,1.579,2.373,2.373,0,0,0,1.128.517,21.805,21.805,0,0,1,2.434.677,3.957,3.957,0,0,1,2.124,3.5H5.789a6.751,6.751,0,0,0-3.007-2.8A6.31,6.31,0,0,0,.46,14.782S.1,14.218,1.278,14a8.011,8.011,0,0,0,1.8-.63C3.261,13.166,3.139,11.9,3.139,11.9Z" transform="translate(28.86 4.624)" fill="none" stroke="#bdbde6" stroke-width="0.2"/>
                <g id="Group_15807-2" data-name="Group 15807" transform="translate(0 4.624)">
                  <path id="Path_31692-2" data-name="Path 31692" d="M10.2,11.9s2.246-.075,3.139-.874c-1.457-2.208-.667-4.783-.968-7.189A3.965,3.965,0,0,0,7.978,0H7.941A3.977,3.977,0,0,0,3.59,3.834c-.3,2.4.536,5.263-.959,7.189.893.808,3.148.78,3.148.78h0a4.759,4.759,0,0,1-.094,1.579,2.373,2.373,0,0,1-1.128.517,21.8,21.8,0,0,0-2.434.677A3.957,3.957,0,0,0,0,18.071H7.546a6.751,6.751,0,0,1,3.007-2.8,6.31,6.31,0,0,1,2.321-.489s.357-.564-.818-.78a8.011,8.011,0,0,1-1.8-.63C10.074,13.166,10.2,11.9,10.2,11.9Z" fill="none" stroke="#bdbde6" stroke-width="0.2"/>
                </g>
              </g>
              <path id="Icon_awesome-plus-2" data-name="Icon awesome-plus" d="M9.722,4.113H6.356V.748A.748.748,0,0,0,5.609,0H4.861a.748.748,0,0,0-.748.748V4.113H.748A.748.748,0,0,0,0,4.861v.748a.748.748,0,0,0,.748.748H4.113V9.722a.748.748,0,0,0,.748.748h.748a.748.748,0,0,0,.748-.748V6.356H9.722a.748.748,0,0,0,.748-.748V4.861A.748.748,0,0,0,9.722,4.113Z" transform="translate(15.863 0)" fill="none" stroke="#bdbde6" stroke-width="0.2"/>
            </g>
          </g>
          <g id="Group_18366" data-name="Group 18366" transform="translate(85.219 36.799)">
            <path id="Path_48687" data-name="Path 48687" d="M-715.751-2.434a30.751,30.751,0,0,1-4.932,16.992,26.615,26.615,0,0,1-8.551,8.039.573.573,0,0,1-.687-.009A26.9,26.9,0,0,1-742.607,4.7a32.7,32.7,0,0,1-.725-8.755c0-.051,0-.1.005-.154.04-.769.041-.757.8-.8a26.739,26.739,0,0,0,9.963-2.27A10.748,10.748,0,0,0-729.787-9.1c.113-.105.192-.223.373-.059a15.817,15.817,0,0,0,7.2,3.364,29.037,29.037,0,0,0,5.826.78c.43.015.551.163.555.566C-715.828-3.694-715.775-2.944-715.751-2.434Zm-2.956,1.326c.02-1.14.018-1.124-.938-1.257a25.228,25.228,0,0,1-9.627-3.069.51.51,0,0,0-.605,0A16.691,16.691,0,0,1-732.3-4.212a28.245,28.245,0,0,1-7.465,1.868c-.7.083-.709.073-.69.773a29.02,29.02,0,0,0,1.227,7.762A23.967,23.967,0,0,0-730.1,19a.725.725,0,0,0,1.016.03,24.653,24.653,0,0,0,4.548-4.187C-720.693,10.22-719.046,4.794-718.706-1.108Z" transform="translate(743.373 15.599)" fill="none" stroke="#fff" stroke-width="0.25"/>
            <path id="Path_48688" data-name="Path 48688" d="M-717.4,13.9c.777.606,1.473,1.154,2.178,1.691a.37.37,0,0,1,.177.389c-.1.507.165.559.589.555,2.222-.018,4.444-.009,6.665-.009q8,0,16,.01c.422,0,.531-.093.531-.526q-.021-16.176,0-32.352c0-.473-.079-.675-.6-.624s-1.059,0-1.588.017c-.281.01-.426-.047-.477-.366a4.881,4.881,0,0,0-.828-1.9c.1-.122.23-.08.341-.08q2.051,0,4.1,0a1.251,1.251,0,0,1,1.375,1.312c.012.273.008.547.008.82q0,17.2,0,34.4c0,1.2-.437,1.647-1.621,1.647q-12.639,0-25.277,0c-1.111,0-1.568-.47-1.57-1.593C-717.406,16.178-717.4,15.072-717.4,13.9Z" transform="translate(725.652 22.473)" fill="none" stroke="#fff" stroke-width="0.25"/>
            <path id="Path_48689" data-name="Path 48689" d="M-689.309-23.077c-2.425,0-4.849-.014-7.273.012-.485.005-.526-.176-.452-.562a4.261,4.261,0,0,1,3.91-3.277.616.616,0,0,1,.1,0,.916.916,0,0,0,1.173-.763,2.629,2.629,0,0,1,2.911-1.591,2.62,2.62,0,0,1,2.353,1.955c.084.352.256.391.564.393a4.385,4.385,0,0,1,4.194,2.4c.016.03.032.06.045.091.521,1.177.42,1.34-.817,1.34Zm-1.192-3.732a1.238,1.238,0,0,0,1.229,1.236,1.27,1.27,0,0,0,1.216-1.212,1.267,1.267,0,0,0-1.242-1.234A1.234,1.234,0,0,0-690.5-26.809Z" transform="translate(711.769 29.273)" fill="none" stroke="#fff" stroke-width="0.25"/>
            <path id="Path_48690" data-name="Path 48690" d="M-673.476,70.639a28.92,28.92,0,0,0,2.616-3.48.381.381,0,0,1,.386-.171c1.52,0,3.04-.014,4.559.008a1.807,1.807,0,0,1,1.752,1.789,1.825,1.825,0,0,1-1.6,1.828,2.344,2.344,0,0,1-.305.024Z" transform="translate(695.672 -36.417)" fill="none" stroke="#fff" stroke-width="0.25"/>
            <path id="Path_48691" data-name="Path 48691" d="M-711.522-19.294a5.492,5.492,0,0,0-.923,2.084c-.04.211-.143.267-.35.263-.631-.013-1.264.009-1.9-.009-.28-.008-.433.064-.369.364.141.662-.172,1-.778,1.18a11.051,11.051,0,0,0-1.232.493c-.25.11-.361.105-.355-.221.017-.956-.007-1.912.011-2.868a1.214,1.214,0,0,1,1.149-1.267c1.366-.03,2.732-.015,4.1-.019Z" transform="translate(725.665 22.463)" fill="none" stroke="#fff" stroke-width="0.25"/>
            <path id="Path_48692" data-name="Path 48692" d="M-654.908,41.131c-.263-.037-.77.177-.987-.087-.131-.159.173-.672.275-1.028.21-.735.427-1.468.618-2.208.061-.236.148-.327.4-.326a2.309,2.309,0,0,1,1.888.56,1.748,1.748,0,0,1,.385,1.934,1.707,1.707,0,0,1-1.6,1.152C-654.209,41.144-654.5,41.131-654.908,41.131Z" transform="translate(683.695 -16.284)" fill="none" stroke="#fff" stroke-width="0.25"/>
            <path id="Path_48693" data-name="Path 48693" d="M-649.986,9.845c0-.51.011-1.02,0-1.53-.008-.26.07-.312.325-.263a1.864,1.864,0,0,1,1.511,1.8,1.873,1.873,0,0,1-1.561,1.815c-.263.041-.316-.043-.3-.3.024-.509.007-1.019.007-1.529Z" transform="translate(679.667 3.812)" fill="none" stroke="#fff" stroke-width="0.25"/>
            <path id="Path_48694" data-name="Path 48694" d="M-717.21,16.593c0-.684.013-1.368-.005-2.051-.008-.29.036-.428.38-.422,1.2.021,2.393.018,3.589,0,.3,0,.368.107.366.386-.013,1.3.016,2.6-.017,3.9-.012.474.08.642.6.624,1.28-.045,2.564,0,3.845-.023.342-.005.474.064.465.441-.026,1.144-.031,2.291,0,3.435.012.412-.132.469-.494.463-1.282-.022-2.565.017-3.845-.022-.5-.015-.58.159-.571.6.028,1.3,0,2.6.016,3.9,0,.3-.062.411-.392.4q-1.743-.033-3.487,0c-.354.007-.465-.084-.459-.45.022-1.333-.005-2.667.018-4,.006-.367-.1-.454-.457-.448-1.333.021-2.667,0-4,.017-.338.005-.429-.092-.423-.426.02-1.162.017-2.325,0-3.487,0-.312.06-.434.409-.428,1.333.023,2.667-.007,4,.021.4.008.486-.113.468-.486C-717.233,17.893-717.211,17.242-717.21,16.593Z" transform="translate(728.842 -0.339)" fill="none" stroke="#fff" stroke-width="0.25"/>
          </g>
          <g id="Group_18367" data-name="Group 18367" transform="matrix(0.985, -0.174, 0.174, 0.985, 170.335, 9.469)">
            <path id="Path_48704" data-name="Path 48704" d="M22.527,33.642a10.317,10.317,0,0,1-3.21-.611A23.757,23.757,0,0,1,8.566,26.023,29.035,29.035,0,0,1,5.284,21.4a54.554,54.554,0,0,1-3.8-7.7A20.952,20.952,0,0,1,.13,9.313,8.117,8.117,0,0,1,3.481,1.074,5.154,5.154,0,0,1,6.424,0,3.338,3.338,0,0,1,8.906.909a.851.851,0,0,1,.277.436q.8,3.41,1.427,6.853a3.127,3.127,0,0,1-.031,1.46,1.444,1.444,0,0,1-.605.828c-.729.485-1.488.925-2.195,1.444A1.13,1.13,0,0,0,7.339,13.3a15.518,15.518,0,0,0,.9,1.945,28.65,28.65,0,0,0,3.682,5.588,21.811,21.811,0,0,0,4.634,4.063,3.118,3.118,0,0,0,.751.372.951.951,0,0,0,.964-.174Q19.7,23.9,21.147,22.728c.179-.146.368-.281.559-.412a1.08,1.08,0,0,1,1.311-.029c.718.466,1.4.976,2.09,1.487,1.231.917,2.474,1.818,3.678,2.772a5.26,5.26,0,0,1,.6.552.951.951,0,0,1,.25.71,4.515,4.515,0,0,1-1.1,2.762,8.65,8.65,0,0,1-4.2,2.843A6.438,6.438,0,0,1,22.527,33.642Z" transform="translate(0 0.022)" fill="none" stroke="#fff" stroke-width="0.25"/>
            <path id="Path_48705" data-name="Path 48705" d="M15.034,6.786c1.059,0,2.119,0,3.178,0,.16,0,.214.034.213.205q-.01,2.231,0,4.462c0,.179-.063.2-.217.2-2.112.006-4.223.019-6.335.024-.149,0-.2.025-.2.19,0,2.09-.018,4.181-.029,6.271,0,.33.028.285-.276.286-1.459,0-2.919,0-4.378,0-.153,0-.217-.023-.217-.2,0-2.1-.017-4.2-.018-6.293,0-.2-.052-.257-.252-.258-2.084,0-4.167-.018-6.25-.019C.049,11.655,0,11.6,0,11.4Q.014,9.211,0,7.022c0-.2.06-.241.247-.242,2.1,0,4.2-.017,6.293-.02.164,0,.214-.04.214-.21,0-2.1.015-4.209.017-6.314C6.771.059,6.8,0,7,0q2.221.015,4.441,0c.167,0,.21.043.209.209-.006,2.112,0,4.223-.008,6.335,0,.186.037.25.239.248,1.052-.011,2.1-.005,3.157-.005Z" transform="translate(15.234 0)" fill="none" stroke="#fff" stroke-width="0.25"/>
          </g>
          <g id="Group_18368" data-name="Group 18368" transform="matrix(0.985, -0.174, 0.174, 0.985, 419.365, 89.258)">
            <path id="Path_48704-2" data-name="Path 48704" d="M21.513,32.128a9.853,9.853,0,0,1-3.065-.584A22.689,22.689,0,0,1,8.181,24.852a27.729,27.729,0,0,1-3.135-4.41,52.1,52.1,0,0,1-3.625-7.358,20.008,20.008,0,0,1-1.3-4.19,7.752,7.752,0,0,1,3.2-7.868A4.922,4.922,0,0,1,6.135,0,3.188,3.188,0,0,1,8.5.868a.812.812,0,0,1,.265.416q.76,3.256,1.363,6.545a2.987,2.987,0,0,1-.03,1.394,1.379,1.379,0,0,1-.578.791c-.7.463-1.421.883-2.1,1.379a1.079,1.079,0,0,0-.42,1.307,14.826,14.826,0,0,0,.86,1.857,27.362,27.362,0,0,0,3.516,5.337,20.829,20.829,0,0,0,4.426,3.88,2.978,2.978,0,0,0,.718.355.908.908,0,0,0,.921-.167q1.368-1.135,2.747-2.257c.171-.14.351-.268.534-.393a1.032,1.032,0,0,1,1.252-.027c.686.445,1.341.932,2,1.42,1.176.875,2.363,1.736,3.512,2.647a5.023,5.023,0,0,1,.578.528.908.908,0,0,1,.239.678A4.312,4.312,0,0,1,27.256,29.2a8.261,8.261,0,0,1-4.015,2.715A6.148,6.148,0,0,1,21.513,32.128Z" transform="translate(0 0.021)" fill="none" stroke="#fff" stroke-width="0.25"/>
            <path id="Path_48705-2" data-name="Path 48705" d="M14.358,6.481c1.012,0,2.024,0,3.035,0,.153,0,.2.032.2.2q-.01,2.13,0,4.261c0,.171-.06.194-.207.195-2.017.006-4.033.018-6.05.023-.143,0-.192.024-.192.182,0,2-.017,3.993-.028,5.989,0,.315.026.272-.263.273-1.394,0-2.787,0-4.181,0-.146,0-.207-.022-.208-.194,0-2-.016-4.006-.017-6.01,0-.193-.049-.246-.241-.246-1.99,0-3.979-.017-5.969-.018-.194,0-.243-.051-.241-.245Q.014,8.8,0,6.706c0-.189.058-.23.236-.231,2,0,4.006-.016,6.01-.019.157,0,.2-.039.2-.2,0-2.01.014-4.02.016-6.03C6.466.056,6.5,0,6.682,0Q8.8.014,10.923,0c.159,0,.2.041.2.2-.006,2.017,0,4.033-.008,6.05,0,.178.035.238.229.236,1-.011,2.01-.005,3.015-.005Z" transform="translate(14.549 0)" fill="none" stroke="#fff" stroke-width="0.25"/>
          </g>
          <g id="Group_18369" data-name="Group 18369" transform="translate(316.353 20.628) rotate(-11)">
            <path id="Path_48695" data-name="Path 48695" d="M.005,15.035C.005,12,0,8.97.007,5.937c.008-2.825,1.347-4.15,4.2-4.153q7.581-.009,15.163.008a1.886,1.886,0,0,0,1.791-.787,2.5,2.5,0,0,1,4.1.139A1.717,1.717,0,0,0,26.6,1.9a16.338,16.338,0,0,1,14.835,16.34c.032,2.021.021,4.044,0,6.065a3.506,3.506,0,0,1-2.652,3.807,1.073,1.073,0,0,0-.744.865A5.828,5.828,0,0,1,26.722,29c-.184-.664-.457-.754-1.02-.751-3.285.015-6.571.024-9.856-.006-.662-.006-.908.185-1.092.855A5.723,5.723,0,0,1,9.07,33.415a5.777,5.777,0,0,1-5.586-4.292c-.149-.517-.276-.835-.873-1.029a3.431,3.431,0,0,1-2.6-3.709C-.009,21.269,0,18.152.005,15.035Zm13.4-11.04q-4.611,0-9.223,0c-1.6,0-2,.4-2,2.016q-.005,9.034,0,18.068a5.461,5.461,0,0,0,.021.757,1.22,1.22,0,0,0,.9,1.108c.642.149.546-.522.707-.84a5.672,5.672,0,0,1,5.355-3.372A5.5,5.5,0,0,1,14.44,25.2a1.264,1.264,0,0,0,1.41.865c3.285-.027,6.57-.036,9.855.007a1.206,1.206,0,0,0,1.377-.919,4.994,4.994,0,0,1,1.983-2.4,5.849,5.849,0,0,1,8.7,2.51c.131.272.08.753.563.688a.97.97,0,0,0,.736-.632,1.961,1.961,0,0,0,.189-.717c0-2.484-.02-4.969-.023-7.454,0-.775-.293-1.06-1.129-1.044-3.031.058-6.064.022-9.1.023-3.609,0-5.1-1.51-5.1-5.164,0-1.98-.039-3.96.018-5.938.023-.811-.187-1.066-1.032-1.053C19.726,4.027,16.566,3.995,13.408,3.995Zm25.054,9.9C37.233,8.933,31.65,4.317,26.709,4.073c-.453-.023-.6.084-.595.519.014,2.526-.029,5.054.044,7.578a1.668,1.668,0,0,0,1.71,1.7C31.392,13.927,34.917,13.894,38.462,13.894ZM9.1,23.936a3.649,3.649,0,0,0-3.642,3.7,3.658,3.658,0,0,0,7.316-.049A3.616,3.616,0,0,0,9.1,23.936Zm23.276,0a3.658,3.658,0,0,0-3.669,3.671,3.659,3.659,0,0,0,7.319,0A3.622,3.622,0,0,0,32.377,23.936Z" transform="translate(0 0)" fill="none" stroke="#fff" stroke-width="0.25"/>
            <path id="Path_48696" data-name="Path 48696" d="M5.13,10.082C3.685,10.075,3.382,9.836,3.5,8.239c.087-1.228-.273-1.589-1.5-1.506C.322,6.847-.386,5.713.206,4.108.515,3.273,1.232,3.3,1.894,3.38c1.212.152,1.729-.167,1.609-1.53C3.364.278,3.753-.013,5.276,0,6.653.013,7.011.324,6.892,1.887,6.8,3.123,7.178,3.476,8.4,3.4c1.655-.109,2.462,1.25,1.738,2.744-.316.652-.916.625-1.519.627-1.686.007-1.686.016-1.7,1.608C6.907,9.886,6.694,10.089,5.13,10.082Z" transform="translate(7.596 7.877)" fill="none" stroke="#fff" stroke-width="0.25"/>
          </g>
          <g id="Group_18370" data-name="Group 18370" transform="translate(411.823 14.184)">
            <path id="Path_48697" data-name="Path 48697" d="M-391.8,41.221h-14.752c-1.705,0-2.032-.334-2.034-2.073,0-1.177-.019-2.355,0-3.532a4.083,4.083,0,0,1,4.193-4.178c1.413-.017,1.414-.017,1.414-1.434,0-2.77.048-5.541-.01-8.311a11.128,11.128,0,0,1,9.834-11.223,11.1,11.1,0,0,1,12.407,9.355,34.4,34.4,0,0,1,.117,5.186c.014,1.731.064,3.466-.02,5.193-.048.981.185,1.363,1.226,1.252a3.89,3.89,0,0,1,3.4,1.4,3.064,3.064,0,0,1,.916,1.822c.085,1.8.112,3.6.038,5.4-.039.959-.837,1.146-1.671,1.145Q-384.273,41.216-391.8,41.221Zm-.005-9.783c2.525,0,5.05-.024,7.574.016.67.01.872-.16.861-.848-.041-2.732-.016-5.465-.017-8.2a11.81,11.81,0,0,0-.217-2.884,8.537,8.537,0,0,0-9.233-6.333,8.46,8.46,0,0,0-7.381,8.279c-.01,3.044.019,6.088-.019,9.131-.008.682.18.864.857.853C-396.86,31.414-394.335,31.438-391.81,31.438Zm-.052,7.03h11.527c2.589,0,2.589,0,2.558-2.554-.015-1.228-.519-1.74-1.772-1.74q-12.254-.008-24.507,0c-1.253,0-1.767.516-1.78,1.736-.006.554.047,1.113-.013,1.66-.079.726.17.923.9.917C-400.586,38.45-396.224,38.468-391.862,38.468Z" transform="translate(411.428 -1.966)" fill="none" stroke="#fff" stroke-width="0.25"/>
            <path id="Path_48698" data-name="Path 48698" d="M-397.1,5.3a1.423,1.423,0,0,1-.661,1.243,1.36,1.36,0,0,1-1.645-.134,24.5,24.5,0,0,1-2.13-2.122,1.323,1.323,0,0,1-.044-1.727,1.2,1.2,0,0,1,1.65-.413,9.657,9.657,0,0,1,2.688,2.677A1.555,1.555,0,0,1-397.1,5.3Z" transform="translate(407.204 3.331)" fill="none" stroke="#fff" stroke-width="0.25"/>
            <path id="Path_48699" data-name="Path 48699" d="M-336.248,6.778a1.441,1.441,0,0,1-1.241-.671,1.318,1.318,0,0,1,.1-1.558,25.377,25.377,0,0,1,2.275-2.26,1.261,1.261,0,0,1,1.713.077,1.2,1.2,0,0,1,.317,1.595,10,10,0,0,1-2.687,2.681A1.546,1.546,0,0,1-336.248,6.778Z" transform="translate(366.84 3.321)" fill="none" stroke="#fff" stroke-width="0.25"/>
            <path id="Path_48700" data-name="Path 48700" d="M-367.054-9.562c0-.484-.024-.971.007-1.453a1.282,1.282,0,0,1,1.34-1.3,1.248,1.248,0,0,1,1.371,1.255c.055,1,.043,2.008,0,3.01a1.255,1.255,0,0,1-1.331,1.3,1.294,1.294,0,0,1-1.387-1.359C-367.076-8.591-367.055-9.077-367.054-9.562Z" transform="translate(385.308 12.315)" fill="none" stroke="#fff" stroke-width="0.25"/>
            <path id="Path_48701" data-name="Path 48701" d="M-413.471,39.534a13.34,13.34,0,0,1-1.556-.012,1.266,1.266,0,0,1-1.193-1.331,1.24,1.24,0,0,1,1.164-1.355,23.24,23.24,0,0,1,3.215,0,1.237,1.237,0,0,1,1.193,1.329,1.28,1.28,0,0,1-1.266,1.37c-.515.045-1.037.008-1.557.008Z" transform="translate(416.22 -18.557)" fill="none" stroke="#fff" stroke-width="0.25"/>
            <path id="Path_48702" data-name="Path 48702" d="M-322.727,39.532a15.547,15.547,0,0,1-1.557-.01,1.274,1.274,0,0,1-1.223-1.307,1.26,1.26,0,0,1,1.237-1.394,23.431,23.431,0,0,1,3.114,0,1.25,1.25,0,0,1,1.218,1.406,1.263,1.263,0,0,1-1.232,1.295C-321.685,39.568-322.208,39.533-322.727,39.532Z" transform="translate(359.176 -18.551)" fill="none" stroke="#fff" stroke-width="0.25"/>
            <path id="Path_48703" data-name="Path 48703" d="M-357.786,30.8c.039,1.436-.377,2.015-1.211,2.077-.888.066-1.426-.464-1.525-1.557a2.8,2.8,0,0,0-1.7-2.4c-.96-.47-1.3-1.188-.965-1.965s1.16-.994,2.134-.538A5.321,5.321,0,0,1-357.786,30.8Z" transform="translate(382.949 -11.892)" fill="none" stroke="#fff" stroke-width="0.25"/>
          </g>
          <g id="Group_18371" data-name="Group 18371" transform="translate(628.991 84.696) rotate(-20)">
            <path id="Path_48687-2" data-name="Path 48687" d="M24.363,6a27.122,27.122,0,0,1-4.35,14.987,23.474,23.474,0,0,1-7.542,7.09.505.505,0,0,1-.606-.008A23.723,23.723,0,0,1,.675,12.29,28.844,28.844,0,0,1,.036,4.568c0-.045,0-.09,0-.136.035-.678.036-.668.707-.709a23.583,23.583,0,0,0,8.787-2,9.478,9.478,0,0,0,2.448-1.6c.1-.093.169-.2.329-.052a13.95,13.95,0,0,0,6.347,2.967,25.61,25.61,0,0,0,5.139.688c.379.013.486.144.49.5C24.294,4.888,24.342,5.55,24.363,6Zm-2.607,1.17c.018-1.005.016-.991-.828-1.108a22.251,22.251,0,0,1-8.491-2.706.45.45,0,0,0-.534,0A14.722,14.722,0,0,1,9.769,4.431,24.913,24.913,0,0,1,3.185,6.078c-.618.073-.626.065-.609.681a25.6,25.6,0,0,0,1.083,6.846,21.139,21.139,0,0,0,8.049,11.3.639.639,0,0,0,.9.027,21.745,21.745,0,0,0,4.012-3.693A23.368,23.368,0,0,0,21.756,7.169Z" transform="translate(0 5.612)" fill="none" stroke="#fff" stroke-width="0.25"/>
            <path id="Path_48688-2" data-name="Path 48688" d="M0,29.287c.685.534,1.3,1.018,1.921,1.491a.326.326,0,0,1,.156.343c-.089.447.145.493.52.489,1.959-.016,3.919-.008,5.879-.008q7.054,0,14.109.009c.372,0,.469-.082.468-.464q-.019-14.267,0-28.534c0-.418-.069-.6-.529-.55s-.934,0-1.4.015c-.247.008-.376-.041-.421-.322A4.305,4.305,0,0,0,19.971.077c.09-.108.2-.07.3-.071q1.809,0,3.618,0A1.1,1.1,0,0,1,25.1,1.164c.011.241.007.482.007.723q0,15.171,0,30.343c0,1.061-.385,1.452-1.43,1.452q-11.147,0-22.294,0C.405,33.68,0,33.266,0,32.275S0,30.324,0,29.287Z" transform="translate(7.274 2.791)" fill="none" stroke="#fff" stroke-width="0.25"/>
            <path id="Path_48689-2" data-name="Path 48689" d="M6.839,5.466c-2.139,0-4.277-.013-6.415.011-.427,0-.464-.155-.4-.5A3.758,3.758,0,0,1,3.474,2.09a.544.544,0,0,1,.09,0A.808.808,0,0,0,4.6,1.415,2.319,2.319,0,0,1,7.167.011,2.311,2.311,0,0,1,9.242,1.736c.075.31.226.345.5.346a3.868,3.868,0,0,1,3.7,2.121c.014.027.028.053.04.08.459,1.038.371,1.182-.72,1.182ZM5.788,2.174a1.092,1.092,0,0,0,1.084,1.09A1.12,1.12,0,0,0,7.944,2.2a1.118,1.118,0,0,0-1.1-1.088A1.089,1.089,0,0,0,5.788,2.174Z" transform="translate(12.97 0)" fill="none" stroke="#fff" stroke-width="0.25"/>
            <path id="Path_48690-2" data-name="Path 48690" d="M0,3.223A25.49,25.49,0,0,0,2.307.154.336.336,0,0,1,2.648,0c1.34,0,2.681-.012,4.021.007A1.6,1.6,0,0,1,6.8,3.2a2.069,2.069,0,0,1-.269.022Z" transform="translate(19.577 26.961)" fill="none" stroke="#fff" stroke-width="0.25"/>
            <path id="Path_48691-2" data-name="Path 48691" d="M5.206,0a4.844,4.844,0,0,0-.814,1.838c-.035.186-.126.235-.309.232-.557-.012-1.114.008-1.671-.008-.247-.007-.382.056-.326.321.124.584-.152.879-.686,1.041a9.755,9.755,0,0,0-1.086.435c-.221.1-.318.093-.313-.2.015-.843-.006-1.687.01-2.53A1.071,1.071,0,0,1,1.024.017C2.228-.009,3.433,0,4.638,0Z" transform="translate(7.268 2.795)" fill="none" stroke="#fff" stroke-width="0.25"/>
            <path id="Path_48692-2" data-name="Path 48692" d="M.9,3.217c-.232-.033-.679.156-.87-.077-.115-.14.153-.593.243-.906C.456,1.586.648.939.816.287.869.079.946,0,1.173,0A2.036,2.036,0,0,1,2.837.494,1.542,1.542,0,0,1,3.177,2.2,1.505,1.505,0,0,1,1.769,3.215C1.515,3.229,1.259,3.217.9,3.217Z" transform="translate(24.492 18.698)" fill="none" stroke="#fff" stroke-width="0.25"/>
            <path id="Path_48693-2" data-name="Path 48693" d="M.031,1.6c0-.45.01-.9,0-1.349C.02.017.089-.029.314.015A1.644,1.644,0,0,1,1.647,1.6,1.652,1.652,0,0,1,.27,3.2c-.232.036-.279-.038-.268-.26C.022,2.5.007,2.045.007,1.6Z" transform="translate(26.146 10.45)" fill="none" stroke="#fff" stroke-width="0.25"/>
            <path id="Path_48694-2" data-name="Path 48694" d="M4.3,2.181c0-.6.011-1.207,0-1.809C4.284.116,4.323-.005,4.626,0,5.681.019,6.737.016,7.792,0c.268,0,.325.094.322.341C8.1,1.489,8.128,2.636,8.1,3.781c-.011.418.071.566.529.55,1.129-.039,2.261,0,3.392-.02.3,0,.418.057.41.389-.023,1.009-.027,2.021,0,3.03.01.363-.117.414-.436.408-1.13-.019-2.262.015-3.392-.019-.437-.013-.511.14-.5.531.024,1.145,0,2.291.014,3.437,0,.267-.055.362-.346.357q-1.537-.029-3.075,0c-.312.006-.41-.074-.4-.4.02-1.176,0-2.352.016-3.528.006-.323-.09-.4-.4-.4-1.176.019-2.352,0-3.528.015-.3,0-.378-.081-.373-.375.018-1.025.015-2.05,0-3.075,0-.276.053-.383.36-.378,1.175.02,2.352-.006,3.527.018.351.007.429-.1.413-.429C4.275,3.328,4.3,2.754,4.3,2.181Z" transform="translate(5.963 12.154)" fill="none" stroke="#fff" stroke-width="0.25"/>
          </g>
          <g id="Group_18372" data-name="Group 18372" transform="translate(0 94.078) rotate(-11)">
            <path id="Path_48695-2" data-name="Path 48695" d="M.005,15.035C.005,12,0,8.97.007,5.937c.008-2.825,1.347-4.15,4.2-4.153q7.581-.009,15.163.008a1.886,1.886,0,0,0,1.791-.787,2.5,2.5,0,0,1,4.1.139A1.717,1.717,0,0,0,26.6,1.9a16.338,16.338,0,0,1,14.835,16.34c.032,2.021.021,4.044,0,6.065a3.506,3.506,0,0,1-2.652,3.807,1.073,1.073,0,0,0-.744.865A5.828,5.828,0,0,1,26.722,29c-.184-.664-.457-.754-1.02-.751-3.285.015-6.571.024-9.856-.006-.662-.006-.908.185-1.092.855A5.723,5.723,0,0,1,9.07,33.415a5.777,5.777,0,0,1-5.586-4.292c-.149-.517-.276-.835-.873-1.029a3.431,3.431,0,0,1-2.6-3.709C-.009,21.269,0,18.152.005,15.035Zm13.4-11.04q-4.611,0-9.223,0c-1.6,0-2,.4-2,2.016q-.005,9.034,0,18.068a5.461,5.461,0,0,0,.021.757,1.22,1.22,0,0,0,.9,1.108c.642.149.546-.522.707-.84a5.672,5.672,0,0,1,5.355-3.372A5.5,5.5,0,0,1,14.44,25.2a1.264,1.264,0,0,0,1.41.865c3.285-.027,6.57-.036,9.855.007a1.206,1.206,0,0,0,1.377-.919,4.994,4.994,0,0,1,1.983-2.4,5.849,5.849,0,0,1,8.7,2.51c.131.272.08.753.563.688a.97.97,0,0,0,.736-.632,1.961,1.961,0,0,0,.189-.717c0-2.484-.02-4.969-.023-7.454,0-.775-.293-1.06-1.129-1.044-3.031.058-6.064.022-9.1.023-3.609,0-5.1-1.51-5.1-5.164,0-1.98-.039-3.96.018-5.938.023-.811-.187-1.066-1.032-1.053C19.726,4.027,16.566,3.995,13.408,3.995Zm25.054,9.9C37.233,8.933,31.65,4.317,26.709,4.073c-.453-.023-.6.084-.595.519.014,2.526-.029,5.054.044,7.578a1.668,1.668,0,0,0,1.71,1.7C31.392,13.927,34.917,13.894,38.462,13.894ZM9.1,23.936a3.649,3.649,0,0,0-3.642,3.7,3.658,3.658,0,0,0,7.316-.049A3.616,3.616,0,0,0,9.1,23.936Zm23.276,0a3.658,3.658,0,0,0-3.669,3.671,3.659,3.659,0,0,0,7.319,0A3.622,3.622,0,0,0,32.377,23.936Z" transform="translate(0 0)" fill="none" stroke="#fff" stroke-width="0.25"/>
            <path id="Path_48696-2" data-name="Path 48696" d="M5.13,10.082C3.685,10.075,3.382,9.836,3.5,8.239c.087-1.228-.273-1.589-1.5-1.506C.322,6.847-.386,5.713.206,4.108.515,3.273,1.232,3.3,1.894,3.38c1.212.152,1.729-.167,1.609-1.53C3.364.278,3.753-.013,5.276,0,6.653.013,7.011.324,6.892,1.887,6.8,3.123,7.178,3.476,8.4,3.4c1.655-.109,2.462,1.25,1.738,2.744-.316.652-.916.625-1.519.627-1.686.007-1.686.016-1.7,1.608C6.907,9.886,6.694,10.089,5.13,10.082Z" transform="translate(7.596 7.877)" fill="none" stroke="#fff" stroke-width="0.25"/>
          </g>
          <g id="Group_18471" data-name="Group 18471" transform="translate(248.823 30.692)">
            <path id="Path_48697-2" data-name="Path 48697" d="M-391.8,41.221h-14.752c-1.705,0-2.032-.334-2.034-2.073,0-1.177-.019-2.355,0-3.532a4.083,4.083,0,0,1,4.193-4.178c1.413-.017,1.414-.017,1.414-1.434,0-2.77.048-5.541-.01-8.311a11.128,11.128,0,0,1,9.834-11.223,11.1,11.1,0,0,1,12.407,9.355,34.4,34.4,0,0,1,.117,5.186c.014,1.731.064,3.466-.02,5.193-.048.981.185,1.363,1.226,1.252a3.89,3.89,0,0,1,3.4,1.4,3.064,3.064,0,0,1,.916,1.822c.085,1.8.112,3.6.038,5.4-.039.959-.837,1.146-1.671,1.145Q-384.273,41.216-391.8,41.221Zm-.005-9.783c2.525,0,5.05-.024,7.574.016.67.01.872-.16.861-.848-.041-2.732-.016-5.465-.017-8.2a11.81,11.81,0,0,0-.217-2.884,8.537,8.537,0,0,0-9.233-6.333,8.46,8.46,0,0,0-7.381,8.279c-.01,3.044.019,6.088-.019,9.131-.008.682.18.864.857.853C-396.86,31.414-394.335,31.438-391.81,31.438Zm-.052,7.03h11.527c2.589,0,2.589,0,2.558-2.554-.015-1.228-.519-1.74-1.772-1.74q-12.254-.008-24.507,0c-1.253,0-1.767.516-1.78,1.736-.006.554.047,1.113-.013,1.66-.079.726.17.923.9.917C-400.586,38.45-396.224,38.468-391.862,38.468Z" transform="translate(411.428 -1.966)" fill="none" stroke="#fff" stroke-width="0.25"/>
            <path id="Path_48698-2" data-name="Path 48698" d="M-397.1,5.3a1.423,1.423,0,0,1-.661,1.243,1.36,1.36,0,0,1-1.645-.134,24.5,24.5,0,0,1-2.13-2.122,1.323,1.323,0,0,1-.044-1.727,1.2,1.2,0,0,1,1.65-.413,9.657,9.657,0,0,1,2.688,2.677A1.555,1.555,0,0,1-397.1,5.3Z" transform="translate(407.204 3.331)" fill="none" stroke="#fff" stroke-width="0.25"/>
            <path id="Path_48699-2" data-name="Path 48699" d="M-336.248,6.778a1.441,1.441,0,0,1-1.241-.671,1.318,1.318,0,0,1,.1-1.558,25.377,25.377,0,0,1,2.275-2.26,1.261,1.261,0,0,1,1.713.077,1.2,1.2,0,0,1,.317,1.595,10,10,0,0,1-2.687,2.681A1.546,1.546,0,0,1-336.248,6.778Z" transform="translate(366.84 3.321)" fill="none" stroke="#fff" stroke-width="0.25"/>
            <path id="Path_48700-2" data-name="Path 48700" d="M-367.054-9.562c0-.484-.024-.971.007-1.453a1.282,1.282,0,0,1,1.34-1.3,1.248,1.248,0,0,1,1.371,1.255c.055,1,.043,2.008,0,3.01a1.255,1.255,0,0,1-1.331,1.3,1.294,1.294,0,0,1-1.387-1.359C-367.076-8.591-367.055-9.077-367.054-9.562Z" transform="translate(385.308 12.315)" fill="none" stroke="#fff" stroke-width="0.25"/>
            <path id="Path_48701-2" data-name="Path 48701" d="M-413.471,39.534a13.34,13.34,0,0,1-1.556-.012,1.266,1.266,0,0,1-1.193-1.331,1.24,1.24,0,0,1,1.164-1.355,23.24,23.24,0,0,1,3.215,0,1.237,1.237,0,0,1,1.193,1.329,1.28,1.28,0,0,1-1.266,1.37c-.515.045-1.037.008-1.557.008Z" transform="translate(416.22 -18.557)" fill="none" stroke="#fff" stroke-width="0.25"/>
            <path id="Path_48702-2" data-name="Path 48702" d="M-322.727,39.532a15.547,15.547,0,0,1-1.557-.01,1.274,1.274,0,0,1-1.223-1.307,1.26,1.26,0,0,1,1.237-1.394,23.431,23.431,0,0,1,3.114,0,1.25,1.25,0,0,1,1.218,1.406,1.263,1.263,0,0,1-1.232,1.295C-321.685,39.568-322.208,39.533-322.727,39.532Z" transform="translate(359.176 -18.551)" fill="none" stroke="#fff" stroke-width="0.25"/>
            <path id="Path_48703-2" data-name="Path 48703" d="M-357.786,30.8c.039,1.436-.377,2.015-1.211,2.077-.888.066-1.426-.464-1.525-1.557a2.8,2.8,0,0,0-1.7-2.4c-.96-.47-1.3-1.188-.965-1.965s1.16-.994,2.134-.538A5.321,5.321,0,0,1-357.786,30.8Z" transform="translate(382.949 -11.892)" fill="none" stroke="#fff" stroke-width="0.25"/>
          </g>
          <g id="Group_18472" data-name="Group 18472" transform="translate(736.615 24.662) rotate(-11)">
            <path id="Path_48695-3" data-name="Path 48695" d="M.005,15.035C.005,12,0,8.97.007,5.937c.008-2.825,1.347-4.15,4.2-4.153q7.581-.009,15.163.008a1.886,1.886,0,0,0,1.791-.787,2.5,2.5,0,0,1,4.1.139A1.717,1.717,0,0,0,26.6,1.9a16.338,16.338,0,0,1,14.835,16.34c.032,2.021.021,4.044,0,6.065a3.506,3.506,0,0,1-2.652,3.807,1.073,1.073,0,0,0-.744.865A5.828,5.828,0,0,1,26.722,29c-.184-.664-.457-.754-1.02-.751-3.285.015-6.571.024-9.856-.006-.662-.006-.908.185-1.092.855A5.723,5.723,0,0,1,9.07,33.415a5.777,5.777,0,0,1-5.586-4.292c-.149-.517-.276-.835-.873-1.029a3.431,3.431,0,0,1-2.6-3.709C-.009,21.269,0,18.152.005,15.035Zm13.4-11.04q-4.611,0-9.223,0c-1.6,0-2,.4-2,2.016q-.005,9.034,0,18.068a5.461,5.461,0,0,0,.021.757,1.22,1.22,0,0,0,.9,1.108c.642.149.546-.522.707-.84a5.672,5.672,0,0,1,5.355-3.372A5.5,5.5,0,0,1,14.44,25.2a1.264,1.264,0,0,0,1.41.865c3.285-.027,6.57-.036,9.855.007a1.206,1.206,0,0,0,1.377-.919,4.994,4.994,0,0,1,1.983-2.4,5.849,5.849,0,0,1,8.7,2.51c.131.272.08.753.563.688a.97.97,0,0,0,.736-.632,1.961,1.961,0,0,0,.189-.717c0-2.484-.02-4.969-.023-7.454,0-.775-.293-1.06-1.129-1.044-3.031.058-6.064.022-9.1.023-3.609,0-5.1-1.51-5.1-5.164,0-1.98-.039-3.96.018-5.938.023-.811-.187-1.066-1.032-1.053C19.726,4.027,16.566,3.995,13.408,3.995Zm25.054,9.9C37.233,8.933,31.65,4.317,26.709,4.073c-.453-.023-.6.084-.595.519.014,2.526-.029,5.054.044,7.578a1.668,1.668,0,0,0,1.71,1.7C31.392,13.927,34.917,13.894,38.462,13.894ZM9.1,23.936a3.649,3.649,0,0,0-3.642,3.7,3.658,3.658,0,0,0,7.316-.049A3.616,3.616,0,0,0,9.1,23.936Zm23.276,0a3.658,3.658,0,0,0-3.669,3.671,3.659,3.659,0,0,0,7.319,0A3.622,3.622,0,0,0,32.377,23.936Z" transform="translate(0 0)" fill="none" stroke="#fff" stroke-width="0.25"/>
            <path id="Path_48696-3" data-name="Path 48696" d="M5.13,10.082C3.685,10.075,3.382,9.836,3.5,8.239c.087-1.228-.273-1.589-1.5-1.506C.322,6.847-.386,5.713.206,4.108.515,3.273,1.232,3.3,1.894,3.38c1.212.152,1.729-.167,1.609-1.53C3.364.278,3.753-.013,5.276,0,6.653.013,7.011.324,6.892,1.887,6.8,3.123,7.178,3.476,8.4,3.4c1.655-.109,2.462,1.25,1.738,2.744-.316.652-.916.625-1.519.627-1.686.007-1.686.016-1.7,1.608C6.907,9.886,6.694,10.089,5.13,10.082Z" transform="translate(7.596 7.877)" fill="none" stroke="#fff" stroke-width="0.25"/>
          </g>
          <g id="Group_18473" data-name="Group 18473" transform="translate(528.249 78.152)" opacity="0.866">
            <path id="Path_48364-2" data-name="Path 48364" d="M17.244,0A17.244,17.244,0,1,0,34.487,17.244,17.244,17.244,0,0,0,17.244,0M30.272,21.666c-.222.654-1.319.923-1.641,1.526s.057,1.673-.358,2.218-1.54.453-2.037.927-.46,1.606-1.024,2-1.6-.043-2.221.258-.918,1.39-1.577,1.594-1.512-.526-2.2-.423c-.666.1-1.282,1.052-1.976,1.052s-1.31-.952-1.976-1.052c-.684-.1-1.551.624-2.2.423s-.967-1.3-1.577-1.594-1.662.13-2.221-.258-.53-1.527-1.024-2-1.622-.383-2.037-.927S6.175,23.8,5.85,23.192s-1.419-.872-1.641-1.526.482-1.532.369-2.217c-.11-.668-1.061-1.28-1.061-1.978s.951-1.31,1.061-1.978c.113-.685-.589-1.572-.369-2.217s1.319-.923,1.641-1.526-.057-1.674.358-2.219,1.54-.453,2.037-.927.46-1.606,1.024-2,1.6.043,2.221-.258.918-1.39,1.577-1.594,1.512.526,2.2.423c.666-.1,1.282-1.052,1.976-1.052s1.31.952,1.976,1.052c.684.1,1.551-.624,2.2-.423s.967,1.3,1.577,1.594,1.662-.13,2.221.258.53,1.527,1.024,2,1.622.383,2.037.927.034,1.612.358,2.218,1.419.872,1.641,1.526-.482,1.532-.369,2.217c.11.668,1.061,1.28,1.061,1.978s-.951,1.31-1.061,1.978C29.79,20.135,30.491,21.022,30.272,21.666Z" transform="translate(0 0)" fill="none" stroke="#bdbde6" stroke-width="0.2"/>
            <path id="Path_48363-2" data-name="Path 48363" d="M4.072,10.221.966,7.917,0,9.233l4.658,3.456L13.126,1.152,11.573,0l-7.5,10.221" transform="translate(10.413 11.266)" fill="none" stroke="#bdbde6" stroke-width="0.2"/>
          </g>
        </g>
      </g>
    </g>
  </g>
</svg>
