<svg xmlns="http://www.w3.org/2000/svg" xmlns:xlink="http://www.w3.org/1999/xlink" width="24" height="24" viewBox="0 0 24 24">
  <defs>
    <clipPath id="clip-path">
      <rect id="Rectangle_26971" data-name="Rectangle 26971" width="24" height="24" transform="translate(1580 429)" fill="#fff" stroke="#707070" stroke-width="1" opacity="0.59"/>
    </clipPath>
  </defs>
  <g id="Incident_History" data-name="Incident History" transform="translate(-1580 -429)" clip-path="url(#clip-path)">
    <path id="Size_20_Theme_Filled" data-name="Size=20, Theme=Filled" d="M10.361,2.028a9.073,9.073,0,1,1-8.333,9.757,9.435,9.435,0,0,1-.022-1.008.851.851,0,1,1,1.7.051,7.743,7.743,0,0,0,.018.824A7.371,7.371,0,1,0,5.49,6.259l-.231.281H7.388l.115.008a.851.851,0,0,1,0,1.686l-.115.008H3.421l-.115-.008a.851.851,0,0,1-.727-.727L2.57,7.391V2.855l.008-.115a.851.851,0,0,1,.727-.727L3.421,2l.115.008a.851.851,0,0,1,.727.727l.008.115V5.07A9.047,9.047,0,0,1,10.361,2.028Zm.428,4.512.115.008a.851.851,0,0,1,.727.727l.008.115v3.681h1.985l.115.008a.851.851,0,0,1,0,1.686l-.115.008H10.789l-.115-.008a.851.851,0,0,1-.727-.727l-.008-.115V7.391l.008-.115a.851.851,0,0,1,.727-.727Z" transform="translate(1581.063 429.948)" fill="#4a4947"/>
  </g>
</svg>
