<svg xmlns="http://www.w3.org/2000/svg" xmlns:xlink="http://www.w3.org/1999/xlink" width="32" height="32" viewBox="0 0 32 32">
  <defs>
    <clipPath id="clip-path">
      <rect id="Rectangle_219" data-name="Rectangle 219" width="32" height="32" transform="translate(976 328)" fill="#fff" opacity="0.46"/>
    </clipPath>
  </defs>
  <g id="Manage_Roles" data-name="Manage Roles" transform="translate(-976 -328)" clip-path="url(#clip-path)">
    <path id="Path_194" data-name="Path 194" d="M1030.31,1195.721l.17,0,.17,0Z" transform="translate(-41.372 -852.189)" fill="#f0f"/>
    <path id="Path_195" data-name="Path 195" d="M17.006,11.323H14.219a6.173,6.173,0,1,0-6.85,0H4.588A4.584,4.584,0,0,0,0,15.911v6.855A1.987,1.987,0,0,0,1.985,24.75H14.914V23.717H1.985a.952.952,0,0,1-.951-.951V15.911a3.559,3.559,0,0,1,3.555-3.555H17.073V11.324h-.067m-6.076,0-.136,0-.136,0a5.145,5.145,0,1,1,.273,0" transform="translate(978.735 331.183)" fill="#242424" stroke="#242424" stroke-width="0.25"/>
    <path id="Path_196" data-name="Path 196" d="M1031.38,1095.721l.157,0,.157,0Z" transform="translate(-42.43 -753.381)" fill="#f0f"/>
    <path id="Path_197" data-name="Path 197" d="M1403.3,1208.325a1.284,1.284,0,0,1-.466-.088l-1.542-.6a1.289,1.289,0,0,1-.8-1.432l.116-.632a.357.357,0,0,0-.08-.293l-.081-.1-.039-.05a.351.351,0,0,0-.263-.138l-.671-.027a1.29,1.29,0,0,1-1.221-1.095l-.247-1.636a1.29,1.29,0,0,1,.844-1.406l.616-.218a.354.354,0,0,0,.214-.213c.021-.057.043-.114.066-.17a.353.353,0,0,0-.013-.3l-.314-.6a1.289,1.289,0,0,1,.341-1.6l1.3-1.029a1.29,1.29,0,0,1,1.639.032l.458.393a.464.464,0,0,0,.377.1l.011,0a.463.463,0,0,0,.321-.212l.332-.536a1.289,1.289,0,0,1,1.553-.526l1.547.589a1.289,1.289,0,0,1,.81,1.425l-.11.629a.355.355,0,0,0,.078.293c.041.048.082.1.121.147l0,0a.356.356,0,0,0,.267.137l.668.022a1.29,1.29,0,0,1,1.229,1.085l.259,1.635a1.29,1.29,0,0,1-.833,1.412l-.593.215a.348.348,0,0,0-.211.212c-.024.068-.05.137-.078.2a.348.348,0,0,0,.017.293l.307.579a1.289,1.289,0,0,1-.329,1.606l-1.289,1.039a1.29,1.29,0,0,1-1.64-.019l-.481-.407a.348.348,0,0,0-.287-.078c-.071.013-.145.025-.216.034a.348.348,0,0,0-.247.161l-.349.555a1.29,1.29,0,0,1-1.091.6m-1.443-10.874a.254.254,0,0,0-.158.055l-1.3,1.029a.255.255,0,0,0-.068.317l.314.6a1.384,1.384,0,0,1,.053,1.167c-.018.044-.036.089-.052.134a1.383,1.383,0,0,1-.839.83l-.615.218a.255.255,0,0,0-.167.278l.247,1.637a.255.255,0,0,0,.241.216l.671.027a1.382,1.382,0,0,1,1.038.538l.031.039.064.079a1.387,1.387,0,0,1,.3,1.142l-.115.632a.255.255,0,0,0,.158.283l1.542.6a.255.255,0,0,0,.308-.1l.349-.555a1.379,1.379,0,0,1,.983-.635c.057-.008.115-.017.171-.027a1.378,1.378,0,0,1,1.139.306l.48.406a.255.255,0,0,0,.324,0l1.289-1.039a.255.255,0,0,0,.065-.317l-.307-.579a1.378,1.378,0,0,1-.062-1.165c.021-.053.042-.108.061-.161a1.377,1.377,0,0,1,.834-.84l.593-.215a.254.254,0,0,0,.165-.279l-.259-1.635a.255.255,0,0,0-.243-.214l-.668-.022a1.388,1.388,0,0,1-1.043-.528l0,0c-.031-.039-.063-.078-.1-.116a1.385,1.385,0,0,1-.311-1.144l.11-.629a.255.255,0,0,0-.16-.281l-1.547-.589a.255.255,0,0,0-.307.1l-.332.536a1.5,1.5,0,0,1-1.038.689h-.008a1.5,1.5,0,0,1-1.216-.34l-.458-.393a.254.254,0,0,0-.166-.061m2.478,7.036a2.49,2.49,0,0,1-.286-.017,2.371,2.371,0,0,1-1.579-.851h0a2.415,2.415,0,1,1,1.865.868m-1.065-1.522a1.382,1.382,0,0,0,1.879.216,1.358,1.358,0,0,0,.222-1.932,1.382,1.382,0,0,0-1.879-.216,1.358,1.358,0,0,0-.222,1.932" transform="translate(-404.815 -852.325)" fill="#242424" stroke="#242424" stroke-width="0.25"/>
    <rect id="Rectangle_218" data-name="Rectangle 218" width="31.234" height="28.613" transform="translate(976.662 329.286)" fill="none"/>
  </g>
</svg>
