<svg xmlns="http://www.w3.org/2000/svg" xmlns:xlink="http://www.w3.org/1999/xlink" width="32" height="32" viewBox="0 0 32 32">
  <defs>
    <clipPath id="clip-path">
      <rect id="Rectangle_220" data-name="Rectangle 220" width="32" height="32" transform="translate(1105 166)" fill="#fff" opacity="0.46"/>
    </clipPath>
    <clipPath id="clip-path-2">
      <rect id="Rectangle_26843" data-name="Rectangle 26843" width="23.308" height="24.999" fill="#242424"/>
    </clipPath>
  </defs>
  <g id="Mask_Group_17" data-name="Mask Group 17" transform="translate(-1105 -166)" clip-path="url(#clip-path)">
    <g id="Group_18820" data-name="Group 18820" transform="translate(1110 169)">
      <path id="Path_48862" data-name="Path 48862" d="M14.166,2.846l3.405,3.4H14.166ZM0,0V25H12.5V23.332H1.667V1.667H12.5v6.25h6.25V12.5h1.667V6.666L13.749,0Z" fill="#6264a7"/>
      <g id="Group_18819" data-name="Group 18819">
        <g id="Group_18818" data-name="Group 18818" clip-path="url(#clip-path-2)">
          <path id="Path_48863" data-name="Path 48863" d="M99.917,107.226a4.054,4.054,0,0,0-.071-.751l1.436-.621-.661-1.529-1.425.617a3.988,3.988,0,0,0-.951-.962l.612-1.418-1.53-.661-.61,1.412a4.042,4.042,0,0,0-.793-.079,3.98,3.98,0,0,0-.808.082l-.611-1.415-1.53.661.617,1.428a4.007,4.007,0,0,0-.943.957l-1.437-.621-.661,1.529,1.451.628a3.989,3.989,0,0,0-.069.744,4.065,4.065,0,0,0,.083.818l-1.465.633.661,1.529,1.482-.64a4,4,0,0,0,.925.917l-.643,1.489,1.53.661.643-1.489a4.087,4.087,0,0,0,.776.075,4.025,4.025,0,0,0,.76-.072l.643,1.486,1.53-.661-.64-1.48a3.974,3.974,0,0,0,.936-.919l1.468.635.661-1.529-1.45-.626a4.035,4.035,0,0,0,.085-.825m-1.671.139a2.313,2.313,0,0,1-.69,1.517.189.189,0,0,1-.024.024,2.319,2.319,0,0,1-1.537.646h-.158a2.313,2.313,0,0,1-1.532-.657l-.018-.017a2.32,2.32,0,0,1-.685-1.519c0-.043,0-.087,0-.132,0-.018,0-.036,0-.054a2.307,2.307,0,0,1,.633-1.54l.047-.05A2.325,2.325,0,0,1,95.8,104.9l.122,0,.106,0a2.314,2.314,0,0,1,1.528.668c.018.018.036.036.053.056a2.313,2.313,0,0,1,.639,1.539c0,.019,0,.04,0,.061,0,.047,0,.093,0,.139" transform="translate(-77.974 -87.748)" fill="#6264a7"/>
        </g>
      </g>
    </g>
  </g>
</svg>
