<svg xmlns="http://www.w3.org/2000/svg" xmlns:xlink="http://www.w3.org/1999/xlink" width="32" height="32" viewBox="0 0 32 32">
  <defs>
    <clipPath id="clip-path">
      <rect id="Rectangle_220" data-name="Rectangle 220" width="32" height="32" transform="translate(903 328)" fill="#fff" opacity="0.46"/>
    </clipPath>
  </defs>
  <g id="Manage_Incident_Types" data-name="Manage Incident Types" transform="translate(-903 -328)" clip-path="url(#clip-path)">
    <path id="Path_198" data-name="Path 198" d="M1242.846,1189.84a1.248,1.248,0,0,1-.453-.085l-1.5-.584a1.254,1.254,0,0,1-.777-1.392l.112-.614a.347.347,0,0,0-.078-.285l-.078-.1-.038-.048a.343.343,0,0,0-.256-.135l-.652-.026a1.254,1.254,0,0,1-1.187-1.064l-.24-1.591a1.254,1.254,0,0,1,.821-1.367l.6-.212a.341.341,0,0,0,.208-.207c.02-.055.042-.11.064-.165a.343.343,0,0,0-.013-.289l-.305-.586a1.254,1.254,0,0,1,.332-1.559l1.261-1a1.254,1.254,0,0,1,1.594.031l.445.382a.45.45,0,0,0,.367.1h.009a.451.451,0,0,0,.313-.206l.322-.521a1.254,1.254,0,0,1,1.51-.511l1.5.573a1.254,1.254,0,0,1,.788,1.386l-.107.612a.346.346,0,0,0,.076.285c.04.047.08.095.118.143l0,0a.347.347,0,0,0,.26.133l.65.022a1.253,1.253,0,0,1,1.2,1.055l.252,1.589a1.254,1.254,0,0,1-.81,1.373l-.576.209a.339.339,0,0,0-.206.206c-.024.067-.049.134-.075.2a.338.338,0,0,0,.016.285l.3.563a1.254,1.254,0,0,1-.32,1.562l-1.253,1.01a1.253,1.253,0,0,1-1.594-.019l-.468-.4a.339.339,0,0,0-.279-.076c-.069.013-.14.024-.211.033a.338.338,0,0,0-.24.156l-.34.54a1.255,1.255,0,0,1-1.061.585m-1.4-10.573a.247.247,0,0,0-.154.053l-1.26,1a.247.247,0,0,0-.066.308l.3.586a1.345,1.345,0,0,1,.052,1.135c-.017.043-.035.087-.05.13a1.346,1.346,0,0,1-.816.808l-.6.212a.247.247,0,0,0-.162.27l.24,1.591a.248.248,0,0,0,.234.21l.652.026a1.344,1.344,0,0,1,1.01.524l.03.038.062.077a1.348,1.348,0,0,1,.3,1.11l-.112.614a.248.248,0,0,0,.153.275l1.5.584a.248.248,0,0,0,.3-.1l.339-.54a1.34,1.34,0,0,1,.956-.617c.056-.007.111-.016.167-.026a1.34,1.34,0,0,1,1.108.3l.467.4a.248.248,0,0,0,.315,0l1.253-1.01a.248.248,0,0,0,.063-.308l-.3-.563a1.339,1.339,0,0,1-.061-1.132c.021-.052.041-.1.059-.157a1.341,1.341,0,0,1,.811-.816l.576-.209a.247.247,0,0,0,.16-.271l-.252-1.589a.248.248,0,0,0-.236-.208l-.65-.022a1.349,1.349,0,0,1-1.014-.513l0,0c-.03-.038-.062-.076-.093-.113a1.347,1.347,0,0,1-.3-1.112l.107-.611a.248.248,0,0,0-.156-.274l-1.5-.573a.247.247,0,0,0-.3.1l-.323.521a1.454,1.454,0,0,1-1.009.67h-.007a1.455,1.455,0,0,1-1.182-.33l-.445-.382a.247.247,0,0,0-.161-.06m2.41,6.841a2.373,2.373,0,0,1-.278-.016,2.335,2.335,0,1,1,.278.016m-1.036-1.479a1.344,1.344,0,0,0,1.827.21,1.321,1.321,0,0,0,.216-1.879,1.344,1.344,0,0,0-1.827-.21,1.321,1.321,0,0,0-.216,1.879Z" transform="translate(-318.472 -833.955)" fill="#242424" stroke="#242424" stroke-width="0.25"/>
    <path id="Path_199" data-name="Path 199" d="M12.077,23.058H5.666A4.666,4.666,0,0,1,1,18.4V4.461A3.46,3.46,0,0,1,4.461,1h13.88A3.46,3.46,0,0,1,21.8,4.461v5.747h1V4.461A4.458,4.458,0,0,0,18.341,0H4.461A4.458,4.458,0,0,0,0,4.461V18.4a5.661,5.661,0,0,0,5.666,5.666h6.411Z" transform="translate(906.778 331.937)" fill="#242424" stroke="#242424" stroke-width="0.25"/>
  </g>
</svg>
