<svg xmlns="http://www.w3.org/2000/svg" width="31" height="31" viewBox="0 0 31 31">
  <g id="Group_18403" data-name="Group 18403" transform="translate(-919.628 -340.602)">
    <g id="Path_48746" data-name="Path 48746" transform="translate(919.628 340.602)" fill="none">
      <path d="M15.5,0A15.5,15.5,0,1,1,0,15.5,15.5,15.5,0,0,1,15.5,0Z" stroke="none"/>
      <path d="M 15.50000095367432 2.500001907348633 C 12.02758026123047 2.500001907348633 8.762990951538086 3.852241516113281 6.307611465454102 6.307611465454102 C 3.852241516113281 8.762990951538086 2.500001907348633 12.02758026123047 2.500001907348633 15.50000095367432 C 2.500001907348633 18.97241973876953 3.852241516113281 22.23701095581055 6.307611465454102 24.69239044189453 C 8.762990951538086 27.14776039123535 12.02758026123047 28.5 15.50000095367432 28.5 C 18.97241973876953 28.5 22.23701095581055 27.14776039123535 24.69239044189453 24.69239044189453 C 27.14776039123535 22.23701095581055 28.5 18.97241973876953 28.5 15.50000095367432 C 28.5 12.02758026123047 27.14776039123535 8.762990951538086 24.69239044189453 6.307611465454102 C 22.23701095581055 3.852241516113281 18.97241973876953 2.500001907348633 15.50000095367432 2.500001907348633 M 15.50000095367432 1.9073486328125e-06 C 24.06041145324707 1.9073486328125e-06 31 6.939590454101562 31 15.50000095367432 C 31 24.06041145324707 24.06041145324707 31 15.50000095367432 31 C 6.939590454101562 31 1.9073486328125e-06 24.06041145324707 1.9073486328125e-06 15.50000095367432 C 1.9073486328125e-06 6.939590454101562 6.939590454101562 1.9073486328125e-06 15.50000095367432 1.9073486328125e-06 Z" stroke="none" fill="#979593"/>
    </g>
    <path id="Path_48732" data-name="Path 48732" d="M-200.249,322.912c1.436-.847,2.592-1.5,3.724-2.2.692-.427,1.343-.547,1.851.2.533.785.083,1.333-.579,1.745-1.8,1.119-3.57,2.294-5.432,3.3-1.067.577-1.888.226-1.889-1.172,0-3.156.005-6.312-.005-9.468,0-.8.227-1.472,1.115-1.493,1.016-.023,1.225.717,1.22,1.586C-200.257,317.79-200.249,320.171-200.249,322.912Z" transform="translate(1135.762 35.162)" fill="#979593" stroke="#979593" stroke-width="1"/>
  </g>
</svg>
