<svg xmlns="http://www.w3.org/2000/svg" width="30" height="30" viewBox="0 0 30 30">
  <g id="Planning" transform="translate(-919.628 -340.602)">
    <g id="Path_48746" data-name="Path 48746" transform="translate(919.628 340.602)" fill="none">
      <path d="M15,0A15,15,0,1,1,0,15,15,15,0,0,1,15,0Z" stroke="none"/>
      <path d="M 15 2.5 C 11.66113090515137 2.5 8.522100448608398 3.800230026245117 6.161169052124023 6.161169052124023 C 3.800230026245117 8.522100448608398 2.5 11.66113090515137 2.5 15 C 2.5 18.33887100219727 3.800230026245117 21.4778995513916 6.161169052124023 23.83882904052734 C 8.522100448608398 26.19976997375488 11.66113090515137 27.5 15 27.5 C 18.33887100219727 27.5 21.4778995513916 26.19976997375488 23.83882904052734 23.83882904052734 C 26.19976997375488 21.4778995513916 27.5 18.33887100219727 27.5 15 C 27.5 11.66113090515137 26.19976997375488 8.522100448608398 23.83882904052734 6.161169052124023 C 21.4778995513916 3.800230026245117 18.33887100219727 2.5 15 2.5 M 15 0 C 23.28426933288574 0 30 6.715730667114258 30 15 C 30 23.28426933288574 23.28426933288574 30 15 30 C 6.715730667114258 30 0 23.28426933288574 0 15 C 0 6.715730667114258 6.715730667114258 0 15 0 Z" stroke="none" fill="#676767"/>
    </g>
    <path id="Path_48732" data-name="Path 48732" d="M-200.249,322.912c1.436-.847,2.592-1.5,3.724-2.2.692-.427,1.343-.547,1.851.2.533.785.083,1.333-.579,1.745-1.8,1.119-3.57,2.294-5.432,3.3-1.067.577-1.888.226-1.889-1.172,0-3.156.005-6.312-.005-9.468,0-.8.227-1.472,1.115-1.493,1.016-.023,1.225.717,1.22,1.586C-200.257,317.79-200.249,320.171-200.249,322.912Z" transform="translate(1135.169 34.711)" fill="#676767" stroke="#676767" stroke-width="1"/>
  </g>
</svg>
