<svg xmlns="http://www.w3.org/2000/svg" width="46.268" height="43" viewBox="0 0 46.268 43">
  <g id="Group_18424" data-name="Group 18424" transform="translate(-903.549 -327)">
    <path id="Path_48730" data-name="Path 48730" d="M-310.63,242.586a2.736,2.736,0,0,1,2.673-1.3c10.347.036,20.694.019,31.042.023,1.985,0,2.6.591,2.609,2.505.01,4.086,0,8.172.007,12.258,0,.64.129,1.192-.9,1.21-1.083.019-1.04-.519-1.019-1.262.033-1.166-.052-2.339.028-3.5.061-.882-.288-1.034-1.079-1.032q-15.2.035-30.4,0c-.829,0-1.063.216-1.058,1.053.035,6.1.044,12.205-.006,18.307-.008,1,.395,1.074,1.206,1.069,5.147-.031,10.294-.008,15.441-.024.735,0,1.285-.075,1.265,1.015-.019,1.028-.561.909-1.207.909-5.412-.007-10.825-.027-16.237.016a2.58,2.58,0,0,1-2.356-1.294Zm18,7.01c3.823,0,7.646.03,11.469-.014,1.623-.018,3.8.708,4.709-.311.8-.891.13-3.033.261-4.609.1-1.2-.271-1.477-1.462-1.469-8.655.058-17.309.015-25.964.045-1.676.006-3.921-.729-4.863.317-.826.917-.155,3.13-.262,4.764-.069,1.046.258,1.316,1.3,1.3C-302.5,249.565-297.566,249.6-292.628,249.6Z" transform="translate(1214.179 85.709)" fill="#fff"/>
    <g id="Group_18399" data-name="Group 18399" transform="translate(924.757 344.94)">
      <g id="Path_48746" data-name="Path 48746" fill="none">
        <path d="M12.53,0A12.53,12.53,0,1,1,0,12.53,12.53,12.53,0,0,1,12.53,0Z" stroke="none"/>
        <path d="M 12.53006267547607 2.500001907348633 C 6.999473571777344 2.500001907348633 2.500001907348633 6.999473571777344 2.500001907348633 12.53006267547607 C 2.500001907348633 18.06065368652344 6.999473571777344 22.56012344360352 12.53006267547607 22.56012344360352 C 18.06065368652344 22.56012344360352 22.56012344360352 18.06065368652344 22.56012344360352 12.53006267547607 C 22.56012344360352 6.999473571777344 18.06065368652344 2.500001907348633 12.53006267547607 2.500001907348633 M 12.53006267547607 1.9073486328125e-06 C 19.45022201538086 1.9073486328125e-06 25.06012344360352 5.609903335571289 25.06012344360352 12.53006267547607 C 25.06012344360352 19.45022201538086 19.45022201538086 25.06012344360352 12.53006267547607 25.06012344360352 C 5.609903335571289 25.06012344360352 1.9073486328125e-06 19.45022201538086 1.9073486328125e-06 12.53006267547607 C 1.9073486328125e-06 5.609903335571289 5.609903335571289 1.9073486328125e-06 12.53006267547607 1.9073486328125e-06 Z" stroke="none" fill="#979593"/>
      </g>
      <path id="Path_48732" data-name="Path 48732" d="M-200.66,321.311c1.183-.7,2.135-1.24,3.068-1.815.57-.352,1.106-.451,1.524.165.439.646.068,1.1-.477,1.438-1.483.922-2.941,1.89-4.475,2.719-.879.475-1.555.186-1.556-.966,0-2.6,0-5.2,0-7.8,0-.658.187-1.213.919-1.23.837-.019,1.01.591,1.005,1.307C-200.667,317.091-200.66,319.053-200.66,321.311Z" transform="translate(213.462 -307.132)" fill="#969592" stroke="#979593" stroke-width="1"/>
    </g>
  </g>
</svg>
